<?xml version="1.0" standalone="no"?>
<!DOCTYPE svg PUBLIC "-//W3C//DTD SVG 1.1//EN" "http://www.w3.org/Graphics/SVG/1.1/DTD/svg11.dtd" >
<svg>
<metadata>
Created by FontForge 20090914 at Thu Feb 27 01:54:25 2014
 By www-data
Copyright 1990-1993  FontBank, Inc.
</metadata>
<defs>
<font id="Rondalo" horiz-adv-x="558" >
  <font-face 
    font-family="Rondalo"
    font-weight="5"
    font-stretch="normal"
    units-per-em="1000"
    panose-1="0 0 0 0 0 0 0 0 0 0"
    ascent="800"
    descent="-200"
    x-height="440"
    cap-height="715"
    bbox="-162.001 -289 1002 892"
    underline-thickness="18"
    underline-position="-109"
    unicode-range="U+0020-U+F002"
  />
<missing-glyph horiz-adv-x="717" 
d="M44 0v717h629v-717h-629zM629 44v629h-541v-629h541z" />
    <glyph glyph-name=".notdef" horiz-adv-x="717" 
d="M44 0v717h629v-717h-629zM629 44v629h-541v-629h541z" />
    <glyph glyph-name="space" unicode=" " horiz-adv-x="224" 
 />
    <glyph glyph-name="exclam" unicode="!" horiz-adv-x="195" 
d="M57 191v528h84v-528h-84zM48 49c0 16.667 4.66699 31 14 43s22.333 18 39 18c14.667 0 28 -5 40 -15s18 -22.333 18 -37c0 -15.333 -4.16699 -28.5 -12.5 -39.5s-19.833 -17.5 -34.5 -19.5c-16.667 -2.66699 -31.5 1 -44.5 11s-19.5 23 -19.5 39z" />
    <glyph glyph-name="quotedbl" unicode="&#x22;" horiz-adv-x="368" 
d="M324 626l-56 -91.001h-43l34 45l4 8c2 4 2.33301 6.66699 1 8l-30 23c-11.333 10.667 -17 22.334 -17 35.001c0 16.667 5.66699 30.667 17 42s25.333 17 42 17c15.333 0 28.333 -5.33301 39 -16s16 -23.667 16 -39c0 -13.333 -2.33301 -24 -7 -32zM146 625.999
l-56 -91.002h-43l34 45c2 2.66699 3.66699 5.33398 5 8.00098c2 4 2 6.66699 0 8l-30 23c-11.333 10.667 -17 22.334 -17 35.001c0 16.667 5.66699 30.667 17 42s25.666 17 42.999 17c14.667 0 27.334 -5.33301 38.001 -16s16 -23.667 16 -39c0 -13.333 -2.33301 -24 -7 -32
z" />
    <glyph glyph-name="dollar" unicode="$" horiz-adv-x="488" 
d="M332 670c2.66699 -1.33301 5.83301 2.49609 9.5 11.4961s7.5 17.833 11.5 26.5h83l-99 -275c-1.33301 -4.66699 -2.33301 -8.33398 -3 -11.001c-2.66699 -9.33301 -4 -16 -4 -20c0 -5.33301 1.33301 -9 4 -11c38.667 -26 68.334 -53.667 89.001 -83
c23.333 -33.333 35 -68.666 35 -105.999c0 -16.667 -2.33301 -33 -7 -49c-12.667 -48 -39.667 -87 -81 -117c-37.333 -27.333 -77.333 -41 -120 -41c-6.66699 0 -13.834 0.5 -21.501 1.5s-15.167 2.83301 -22.5 5.5c-2 0.666992 -4.33301 0 -7 -2
c-6.66699 -4.66699 -10.667 -9.66699 -12 -15l-29 -79h-81l33 98c2.66699 7.33301 4.66699 13.5 6 18.5s2 9.5 2 13.5s-1.33301 7.33301 -4 10c-25.333 22.667 -43.333 47.667 -54 75s-16 61.333 -16 102l81 -30c0 -15.333 2 -27.166 6 -35.499s10.333 -11.166 19 -8.49902
c2.66699 1.33301 5.66699 4.83301 9 10.5s7 14.834 11 27.501l36 104l10 29c3.33301 10 3.33301 16 0 18c-49.333 28.667 -82.333 52.667 -99 72c-24 28 -36 65.333 -36 112s17.5 84.834 52.5 114.501s77.833 44.5 128.5 44.5c10 0 21.333 -1 34 -3s24.667 -4.66699 36 -8z
M299.999 572.996c-1.33301 10.667 -6.33496 19 -15.002 25s-19.334 9 -32.001 9c-15.333 0 -30.5 -4.33301 -45.5 -13s-28.167 -22.334 -39.5 -41.001c-2.66699 -4 -4.66699 -9.16699 -6 -15.5s-2 -12.166 -2 -17.499c0 -23.333 8.5 -45.166 25.5 -65.499
s33.833 -30.5 50.5 -30.5c4.66699 0 9.33398 1.66699 14.001 5c8.66699 6 14.334 14.333 17.001 25l28 86l4.5 14c1.66699 5.33301 1.83398 11.666 0.500977 18.999zM314.997 301.996c-9.33301 1.33301 -16.999 -2.66992 -22.999 -12.0029
c-3.33301 -5.33301 -7.66602 -15.333 -12.999 -30l-41 -123c-2 -7.33301 -3.66699 -13.666 -5 -18.999s-2 -9.66602 -2 -12.999c0 -7.33301 2.33301 -13.666 7 -18.999c7.33301 -8 16.666 -12 27.999 -12c16.667 0 35.167 8.33301 55.5 25s35.166 34.667 44.499 54
c2.66699 5.33301 4.66699 12 6 20s2 16 2 24c0 25.333 -5.83301 48.833 -17.5 70.5s-25.5 33.167 -41.5 34.5z" />
    <glyph glyph-name="percent" unicode="%" horiz-adv-x="614" 
d="M301 134c0 38.667 14 72.001 42 100.001s61.667 42 101 42s72.833 -13.833 100.5 -41.5s41.5 -61.167 41.5 -100.5c0 -40 -13.833 -74.5 -41.5 -103.5s-61.167 -43.5 -100.5 -43.5s-73 14.667 -101 44s-42 63.666 -42 102.999zM165 431.001
c-39.333 0 -72.166 14.833 -98.499 44.5s-39.5 65.167 -39.5 106.5c0 36 12.167 67.167 36.5 93.5s54.166 39.5 89.499 39.5h393l-399 -715h-72l341 614c4.66699 8.66699 8 15.667 10 21s2 10 0 14c-4.66699 6.66699 -14.667 10 -30 10h-59h-27
c-10.667 -1.33301 -14.667 -5 -12 -11c10 -22.667 15 -46.667 15 -72c0 -41.333 -14.5 -75.833 -43.5 -103.5s-63.833 -41.5 -104.5 -41.5zM174 660.001c-22.667 0 -42.334 -7.66699 -59.001 -23s-25 -34.333 -25 -57c0 -23.333 6.83301 -43.5 20.5 -60.5
s31.834 -26.5 54.501 -28.5c24.667 0 46.667 7.66699 66 23s29 34.333 29 57c0 24 -8.5 44.833 -25.5 62.5s-37.167 26.5 -60.5 26.5zM444 214.001c-23.333 0 -42.667 -8.33398 -58 -25.001s-23 -36.667 -23 -60c0 -22.667 8.33301 -41.667 25 -57s36.667 -23 60 -23
c21.333 0 39.333 8.33301 54 25s22 36.334 22 59.001c0 22 -7.66699 41 -23 57s-34.333 24 -57 24z" />
    <glyph glyph-name="ampersand" unicode="&#x26;" horiz-adv-x="642" 
d="M465 241l74.0029 103l65 -43l-77 -120c-7.33301 -11.333 -12 -19 -14 -23c-4 -8 -6 -16.667 -6 -26c0 -7.33301 2.33301 -14.5 7 -21.5s11 -14.833 19 -23.5l85 -89h-111l-39 40c-4.66699 4.66699 -9 9.66699 -13 15c-6 5.33301 -10 7 -12 5
c-25.333 -24.667 -53.333 -43.334 -84 -56.001s-62 -19 -94 -19c-41.333 0 -79.333 9.5 -114 28.5s-62 45.5 -82 79.5c-10.667 18.667 -18.834 38 -24.501 58s-8.5 38.667 -8.5 56c0 36 10 71.333 30 106l68 90c-9.33301 18.667 -18 37.334 -26 56.001
c-10 22.667 -15 43.667 -15 63c0 12 1.5 23.833 4.5 35.5s7.83301 24.167 14.5 37.5c19.333 35.333 43.166 61.833 71.499 79.5s58.833 26.5 91.5 26.5c32 0 62.5 -8.33301 91.5 -25s51 -39 66 -67s22.5 -58 22.5 -90c0 -46 -14.667 -86.667 -44 -122
c-11.333 -13.333 -25.666 -24.333 -42.999 -33c-30 -14.667 -45.333 -23.667 -46 -27c-2 -7.33301 -0.666992 -14.666 4 -21.999c1.33301 -2.66699 6.66602 -9.33398 15.999 -20.001l43 -45c11.333 -13.333 20.333 -22.333 27 -27
c11.333 -8.66699 20.666 -11.334 27.999 -8.00098c5.33301 2.66699 10 6.33398 14 11.001zM265.003 397c14 -3.33301 34.333 4.66699 61 24c30 21.333 47.333 45 52 71c1.33301 9.33301 2 16.666 2 21.999c0 25.333 -7.16699 48.333 -21.5 69s-33.833 33.334 -58.5 38.001
c-8 1.33301 -14 2 -18 2c-27.333 0 -51.5 -10.5 -72.5 -31.5s-31.5 -45.5 -31.5 -73.5c-2.66699 -28 5.33301 -54 24 -78s39.667 -38.333 63 -43zM200.003 322c-2 1.33301 -5.33398 1.99805 -10.001 1.99805c-14.667 0 -28.667 -11.833 -42 -35.5s-20 -50.5 -20 -80.5
c0 -19.333 3.16699 -37.5 9.5 -54.5s17.333 -33.333 33 -49s32.334 -27 50.001 -34s35.834 -10.5 54.501 -10.5c28 0 53.167 7.33301 75.5 22s32.166 28 29.499 40c-1.33301 4.66699 -4.83301 10.834 -10.5 18.501l-14.5 19.5l-114 124l-19 21
c-6 6.66699 -13.333 12.334 -22 17.001z" />
    <glyph glyph-name="quotesingle" unicode="'" horiz-adv-x="162" 
d="M130 636l-56.001 -89.999h-43l34 44l4 6c3.33301 5.33301 3.66602 9 0.999023 11c-10 7.33301 -19.667 15 -29 23c-12 11.333 -18 23 -18 35c0 16.667 5.83301 30.5 17.5 41.5s25.834 16.5 42.501 16.5c14.667 0 27.334 -5.33301 38.001 -16s16 -23.667 16 -39
c0 -12.667 -2.33301 -23.334 -7 -32.001z" />
    <glyph glyph-name="parenleft" unicode="(" horiz-adv-x="412" 
d="M24 348c0 114 33.167 212.499 99.5 295.499s154.5 134.167 264.5 153.5v-80c-75.333 -11.333 -140.833 -53.166 -196.5 -125.499s-83.5 -153.5 -83.5 -243.5c0 -85.333 25 -161.5 75 -228.5s117 -112.5 201 -136.5v-75c-74 0 -150.333 42.333 -229 127
c-87.333 94 -131 198.333 -131 313z" />
    <glyph glyph-name="parenright" unicode=")" horiz-adv-x="422" 
d="M24 790c110 -19.333 198.167 -70.334 264.5 -153.001s99.5 -181.334 99.5 -296.001c0 -115.333 -43.333 -219.666 -130 -312.999c-78.667 -84.667 -155.334 -127 -230.001 -127v76c84.667 24 151.834 69.333 201.501 136s74.5 142.667 74.5 228
c0 90.667 -27.5 171.834 -82.5 243.501s-120.833 113.5 -197.5 125.5v80z" />
    <glyph glyph-name="asterisk" unicode="*" horiz-adv-x="322" 
d="M137 655l0.000976562 60.999h55v-61c0 -10.667 2 -17 6 -19c4.66699 -2.66699 11.667 -1 21 5l48 30l27 -46l-59 -34c-5.33301 -2 -8.33301 -5.66699 -9 -11c-1.33301 -7.33301 1 -12.666 7 -15.999l61 -32l-27 -42l-52 28c-2.66699 1.33301 -5 2.66602 -7 3.99902
c-5.33301 4 -9.33301 5 -12 3c-2.66699 -1.33301 -4 -7 -4 -17v-59h-57v60c0 8 -1 13 -3 15c-4.66699 3.33301 -11.334 2 -20.001 -4l-55 -32l-27 44l54 31c8 2.66699 12 8.33398 12 17.001c0 6.66699 -4.66699 12 -14 16l-53 27l28 45l50 -29
c9.33301 -4.66699 15.666 -7 18.999 -7c2.66699 0 5.33398 1.33301 8.00098 4c2 2 3 8.33301 3 19z" />
    <glyph glyph-name="comma" unicode="," horiz-adv-x="135" 
d="M115 25l-56.001 -91.001h-42l33 45c2 2.66699 3.66699 5.33398 5 8.00098c2 4.66699 2.33301 7.66699 1 9l-30 22c-11.333 10.667 -17 22.334 -17 35.001c0 16.667 5.66699 30.667 17 42s25.333 17 42 17c14.667 0 27.334 -5.33301 38.001 -16s16 -23.667 16 -39
c0 -12.667 -2.33301 -23.334 -7 -32.001z" />
    <glyph glyph-name="hyphen" unicode="-" horiz-adv-x="276" 
d="M23 231v59h230v-59h-230z" />
    <glyph glyph-name="period" unicode="." horiz-adv-x="133" 
d="M8 60c0 17.333 4.33301 31.833 13 43.5s21.667 17.5 39 17.5c15.333 0 29 -4.83301 41 -14.5s18 -22.167 18 -37.5s-4.16699 -28.5 -12.5 -39.5s-19.833 -17.5 -34.5 -19.5c-16.667 -2.66699 -31.5 1 -44.5 11s-19.5 23 -19.5 39z" />
    <glyph glyph-name="slash" unicode="/" horiz-adv-x="596" 
d="M24 -1l480 716h73l-480 -716h-73z" />
    <glyph glyph-name="zero" unicode="0" horiz-adv-x="721" 
d="M24 341c0 93.333 33.3311 172.668 99.998 238.001s146.667 98 240 98c92.667 0 171.834 -33.5 237.501 -100.5s98.5 -147.5 98.5 -241.5c0 -92.667 -33.167 -171.834 -99.5 -237.501s-146.166 -98.5 -239.499 -98.5s-172.833 33.5 -238.5 100.5s-98.5 147.5 -98.5 241.5z
M363.998 599.002c-71.333 0 -132.667 -25.3311 -184 -75.998s-77 -112.334 -77 -185.001c0 -71.333 25.5 -132.5 76.5 -183.5s112.5 -76.5 184.5 -76.5s133.667 25.333 185 76s77 112 77 184c0 71.333 -25.667 132.666 -77 183.999s-113 77 -185 77z" />
    <glyph glyph-name="one" unicode="1" horiz-adv-x="264" 
d="M214 709v-711h-90v569v19c0 11.333 -2.83301 20 -8.5 26s-12.5 9.5 -20.5 10.5s-15 1.5 -21 1.5h-53v85h193z" />
    <glyph glyph-name="two" unicode="2" horiz-adv-x="477" 
d="M240 631c-32 0 -62.001 -10.832 -90.001 -32.499s-44.667 -49.167 -50 -82.5h-75c0 58.667 22 106.167 66 142.5s96.667 54.5 158 54.5c58 0 106.167 -22.333 144.5 -67s57.5 -98 57.5 -160c0 -44 -17.333 -93.667 -52 -149c-20 -32.667 -54 -78.334 -102 -137.001
c-42.667 -52.667 -67.667 -89 -75 -109c-2 -6 1.33301 -10.5 10 -13.5s18.334 -4.5 29.001 -4.5h172v-73h-395l289 389c25.333 34 38 73 38 117c0 36.667 -9.33301 65.667 -28 87c-22 25.333 -54.333 38 -97 38z" />
    <glyph glyph-name="three" unicode="3" horiz-adv-x="494" 
d="M240 634c-23.333 0 -43.333 -7.00098 -60 -21.001s-26.667 -32.333 -30 -55h-78c0 46.667 16.833 84.167 50.5 112.5s74.5 42.5 122.5 42.5c45.333 0 84.666 -15.667 117.999 -47s50 -69.666 50 -114.999c0 -32.667 -6 -60.667 -18 -84l-39 -53
c30 -13.333 56 -34.666 78 -63.999c24.667 -32.667 37 -74.334 37 -125.001c0 -63.333 -22.667 -117.666 -68 -162.999s-99.666 -68 -162.999 -68c-60.667 0 -112.834 21.167 -156.501 63.5s-65.5 93.833 -65.5 154.5h83c0 -38 13.667 -70 41 -96s60 -39 98 -39
c40.667 0 75.334 14.667 104.001 44s43 64.666 43 105.999c0 48.667 -18.333 84.667 -55 108c-32 20.667 -80 31 -144 31v77c57.333 0 96.333 10 117 30c18 17.333 27 43.333 27 78c0 22.667 -9.16699 42.167 -27.5 58.5s-39.833 24.5 -64.5 24.5z" />
    <glyph glyph-name="four" unicode="4" horiz-adv-x="531" 
d="M9 210l440.001 503.999v-487c0 -16 2 -25.333 6 -28c3.33301 -2.66699 9.33301 -4 18 -4h40v-83h-37c-10.667 0 -17 -1.66699 -19 -5c-2.66699 -4 -4 -10.667 -4 -20v-89h-93v83c0 10 -1.16699 17.333 -3.5 22s-5.83301 7.33398 -10.5 8.00098s-11.334 1 -20.001 1h-13
h-249zM358.001 208.999l0.00195312 64.999v115v17c0 11.333 -0.5 20 -1.5 26s-3.16699 10.333 -6.5 13c-4.66699 3.33301 -12.834 -0.166992 -24.501 -10.5s-23.5 -22.5 -35.5 -36.5l-121 -141c-6.66699 -8 -13.334 -17 -20.001 -27s-10 -16.667 -10 -20
c0 -7.33301 3.5 -12.166 10.5 -14.499s16.167 -3.5 27.5 -3.5h23h113c12.667 0 22.667 0.833008 30 2.5s12.333 6.5 15 14.5z" />
    <glyph glyph-name="five" unicode="5" horiz-adv-x="550" 
d="M102 711l310.998 -0.000976562v-88h-135h-23.5c-7.66699 0 -15.167 0.333008 -22.5 1c-13.333 0 -23.166 -0.5 -29.499 -1.5s-11.166 -3.16699 -14.499 -6.5c-8.66699 -8 -13 -18 -13 -30l-2 -54c0 -2.66699 -0.333008 -8 -1 -16s-1 -14 -1 -18c0 -6 0.666992 -10 2 -12
c2 -3.33301 5 -4 9 -2c23.333 8.66699 49 13 77 13c66 0 125 -22 177 -66c56 -47.333 84 -107 84 -179c0 -71.333 -24 -132.666 -72 -183.999s-107 -77 -177 -77c-65.333 0 -122.833 21 -172.5 63s-74.5 93.333 -74.5 154l82 -1c0 -26.667 16.333 -55 49 -85
c35.333 -32.667 72.333 -49 111 -49c46.667 0 86.167 17.5 118.5 52.5s48.5 77.167 48.5 126.5c0 44.667 -15.5 83.167 -46.5 115.5s-67.167 48.5 -108.5 48.5c-32.667 0 -60 -3 -82 -9s-43 -18 -63 -36l-58 30z" />
    <glyph glyph-name="six" unicode="6" horiz-adv-x="544" 
d="M87 423l149 283.999h101l-101 -188c-6 -11.333 -10.5 -20.5 -13.5 -27.5s-4.5 -11.833 -4.5 -14.5c0 -4.66699 2.66699 -6.66699 8 -6c19.333 4 38 6 56 6c69.333 0 127 -23.333 173 -70s69 -102.667 69 -168c0 -69.333 -25.333 -127.666 -76 -174.999s-111 -71 -181 -71
c-67.333 0 -124.333 24.333 -171 73s-70 107.667 -70 177c0 33.333 5.66699 64.333 17 93c3.33301 8 18 37 44 87zM284 399.999c-46 0 -86.167 -14 -120.5 -42s-51.5 -63.333 -51.5 -106c0 -45.333 14.333 -85.166 43 -119.499s64.334 -51.5 107.001 -51.5
c45.333 0 85.166 14 119.499 42s51.5 63.333 51.5 106c0 45.333 -13.667 84.666 -41 117.999c-29.333 35.333 -65.333 53 -108 53z" />
    <glyph glyph-name="seven" unicode="7" horiz-adv-x="470" 
d="M23 616l0.000976562 94h433l-295 -711h-103l240 569c4.66699 7.33301 8.16699 13.333 10.5 18s3.5 9 3.5 13s-1.33301 7.33301 -4 10c-4.66699 5.33301 -11.334 8 -20.001 8c-7.33301 -0.666992 -12.333 -1 -15 -1h-250z" />
    <glyph glyph-name="eight" unicode="8" horiz-adv-x="500" 
d="M67 539c0 47.333 16.833 87.165 50.5 119.498s74.834 48.5 123.501 48.5c49.333 0 92.166 -15.667 128.499 -47s54.5 -70.666 54.5 -117.999c0 -36 -6.33301 -65.667 -19 -89l-42 -54c28.667 -17.333 53.334 -40.666 74.001 -69.999
c23.333 -32.667 35 -71.334 35 -116.001c0 -62.667 -21.5 -115.5 -64.5 -158.5s-95.5 -64.5 -157.5 -64.5c-61.333 0 -114.333 22 -159 66s-67 96.333 -67 157c0 50.667 11.667 91 35 121l77 62c-18.667 16.667 -34.334 35.334 -47.001 56.001
c-14.667 23.333 -22 52.333 -22 87zM246 348.999c-38 0 -70.5 -13.5 -97.5 -40.5s-40.5 -59.167 -40.5 -96.5c0 -40 13.333 -74 40 -102s60 -42 100 -42c39.333 0 72.5 14.5 99.5 43.5s40.5 63.5 40.5 103.5c0 38 -13.833 69.833 -41.5 95.5s-61.167 38.5 -100.5 38.5z
M248 623.999c-26 0 -48.333 -9.33301 -67 -28s-28 -40.667 -28 -66c0 -28 8.66699 -51.333 26 -70s40.333 -28 69 -28c28 0 50.5 9.83301 67.5 29.5s25.5 43.167 25.5 70.5c0 25.333 -9 47 -27 65s-40 27 -66 27z" />
    <glyph glyph-name="nine" unicode="9" horiz-adv-x="548" 
d="M462 283l-136 -285h-101l87 189c0.666992 2 3 7 7 15c6.66699 14 10 23 10 27c0 4.66699 -2.66699 6.66699 -8 6c-20 -4 -39 -6 -57 -6c-69.333 0 -126.833 23.167 -172.5 69.5s-68.5 102.5 -68.5 168.5c0 68.667 25.333 126.667 76 174s111.667 71 183 71
c67.333 0 124.333 -24 171 -72s70 -107.333 70 -178c0 -34.667 -9.33301 -71.667 -28 -111zM264 305c46 0 86.168 13.999 120.501 41.999s51.5 63.667 51.5 107c0 45.333 -14.333 85 -43 119s-64.334 51 -107.001 51c-46 0 -85.833 -13.667 -119.5 -41
s-50.5 -62.666 -50.5 -105.999c0 -46 14 -86.167 42 -120.5s63.333 -51.5 106 -51.5z" />
    <glyph glyph-name="colon" unicode=":" horiz-adv-x="160" 
d="M23 250c0 14.667 4.16699 27.167 12.5 37.5s19.833 16.5 34.5 18.5c16 2 30 -2 42 -12s18 -23.333 18 -40c0 -14.667 -4.16699 -27.167 -12.5 -37.5s-19.833 -16.166 -34.5 -17.499c-16 0 -30 4.66699 -42 14s-18 21.666 -18 36.999zM23 46
c0 14.667 4.16699 27.832 12.5 39.499s19.833 18.5 34.5 20.5c16 2 30 -2 42 -12s18 -23.333 18 -40c0 -14.667 -4.16699 -27.167 -12.5 -37.5s-19.833 -16.166 -34.5 -17.499c-17.333 0 -31 3 -41 9c-12.667 8 -19 20.667 -19 38z" />
    <glyph glyph-name="semicolon" unicode=";" horiz-adv-x="164" 
d="M23 256c0 15.333 4.83301 28.833 14.5 40.5s22.167 18.5 37.5 20.5c16 1.33301 30 -3 42 -13s18 -23 18 -39c0 -14.667 -4.16699 -27 -12.5 -37s-19.833 -16 -34.5 -18c-16.667 -2 -31.167 0.833008 -43.5 8.5s-19.5 20.167 -21.5 37.5zM129 21l-56 -91h-43l34 44
c6 10 8 15.667 6 17l-30 23c-12 11.333 -18 23 -18 35c0 16.667 5.66699 30.667 17 42s25.666 17 42.999 17c14.667 0 27.334 -5.33301 38.001 -16s16 -23.667 16 -39c0 -13.333 -2.33301 -24 -7 -32z" />
    <glyph glyph-name="question" unicode="?" horiz-adv-x="374" 
d="M105 49c0 15.333 5 28.666 15 39.999s22.667 17 38 17c16 0 29.5 -5.16699 40.5 -15.5s16.5 -23.166 16.5 -38.499s-4.83301 -28.5 -14.5 -39.5s-22.167 -16.5 -37.5 -16.5c-16 0 -29.667 5 -41 15s-17 22.667 -17 38zM188 626
c-4 0.666992 -9.66602 1.00098 -16.999 1.00098c-36.667 0 -64.667 -16.333 -84 -49l-61 40c19.333 30 41.333 52.167 66 66.5s54.667 21.5 90 21.5c47.333 0 87.833 -17.833 121.5 -53.5s50.5 -77.834 50.5 -126.501c0 -77.333 -37.5 -131 -112.5 -161
s-112.5 -56 -112.5 -78c0 -2.66699 1.16699 -9.83398 3.5 -21.501s11.666 -21.5 27.999 -29.5s33.833 -11.333 52.5 -10l15 -55c-12.667 -9.33301 -29.667 -14 -51 -14c-30 0 -56 9.33301 -78 28c-26 22.667 -39 54 -39 94c0 58 49.333 109 148 153
c46.667 20.667 70 49.334 70 86.001c0 8.66699 -1 18 -3 28c-8.66699 48 -37.667 74.667 -87 80z" />
    <glyph glyph-name="at" unicode="@" horiz-adv-x="768" 
d="M396 455c-31.333 0 -58.333 -10.999 -81 -32.999s-34 -49 -34 -81c0 -31.333 11 -58.333 33 -81s49.333 -34 82 -34c32 0 59 11.667 81 35s33 51 33 83c0 31.333 -11 57.666 -33 78.999s-49 32 -81 32zM519 15.001c-42.667 -16.667 -86.332 -25.001 -130.999 -25.001
c-97.333 0 -180.833 35.167 -250.5 105.5s-104.5 154.833 -104.5 253.5c0 98 35.167 181.5 105.5 250.5s155.166 103.5 254.499 103.5c97.333 0 180.333 -35.333 249 -106s103 -155 103 -253c0 -44.667 -12.167 -84 -36.5 -118s-53.5 -51 -87.5 -51c-29.333 0 -52 13 -68 39
c-4.66699 8.66699 -9.66699 21.667 -15 39c-15.333 -24.667 -35.333 -44.167 -60 -58.5s-52 -21.5 -82 -21.5c-46.667 0 -86.667 16.667 -120 50s-50 73.333 -50 120c0 46 16.667 85 50 117s73.333 48 120 48c42.667 0 80.5 -13.667 113.5 -41s49.5 -60.666 49.5 -99.999
c5.33301 -30.667 10 -53.334 14 -68.001c13.333 -45.333 30 -68 50 -68s36 8.33301 48 25c14.667 20.667 22 52.334 22 95.001c0 83.333 -29.333 154.666 -88 213.999s-130 89 -214 89c-83.333 0 -154.833 -29.5 -214.5 -88.5s-89.5 -130.5 -89.5 -214.5
c0 -83.333 29.667 -154.333 89 -213s131 -88 215 -88c30.667 0 55.167 1.33301 73.5 4s32.833 9.33398 43.5 20.001z" />
    <glyph glyph-name="A" unicode="A" 
d="M135 192l0.000976562 -192.999h-88v478c0 66.667 22 123 66 169s98.333 69 163 69c63.333 0 117.666 -23.333 162.999 -70s68 -102.334 68 -167.001v-479h-87v176c0.666992 12.667 1 22 1 28c0 8 -0.666992 15 -2 21s-4.5 11 -9.5 15s-12.833 6 -23.5 6
c-8.66699 -0.666992 -15.334 -1 -20.001 -1h-186c-9.33301 0 -15.666 -0.333008 -18.999 -1c-5.33301 -1.33301 -11 -4.5 -17 -9.5s-9 -14.5 -9 -28.5v-13zM416.001 385.001v98.001c0 41.333 -13 76.166 -39 104.499s-60.333 42.5 -103 42.5c-40.667 0 -73.5 -16 -98.5 -48
s-37.5 -69.667 -37.5 -113v-89c-0.666992 -8.66699 -1 -15 -1 -19c0 -9.33301 2.33301 -16.833 7 -22.5s10.667 -9.33398 18 -11.001s16.333 -2.5 27 -2.5h169h14c10 0 16.333 0.333008 19 1c6 1.33301 11.333 4.66602 16 9.99902c2.66699 2.66699 5 6.33398 7 11.001
s3 10.667 3 18c-0.666992 8.66699 -1 15.334 -1 20.001z" />
    <glyph glyph-name="B" unicode="B" horiz-adv-x="488" 
d="M257 0h-210v495c0 73.333 18 129 54 167c33.333 35.333 79 53 137 53c52.667 0 98.5 -17.833 137.5 -53.5s58.5 -78.167 58.5 -127.5c0 -31.333 -7.33301 -60.666 -22 -87.999l-47 -66c25.333 -12 47.833 -32.333 67.5 -61s29.5 -66 29.5 -112
c0 -58.667 -18.833 -107.834 -56.5 -147.501s-87.167 -59.5 -148.5 -59.5zM147 334c-5.33301 -0.666992 -8.83301 -3.50098 -10.5 -8.50098s-2.5 -12.5 -2.5 -22.5v-14v-152v-16c0 -10 0.833008 -18.167 2.5 -24.5s5.16699 -9.5 10.5 -9.5
c6.66699 0 13.667 -0.166992 21 -0.5s15.333 -0.5 24 -0.5c55.333 0 96.666 6.33301 123.999 19c44 20.667 66 58.334 66 113.001c0 42.667 -19.667 74 -59 94c-31.333 16 -73.666 24 -126.999 24h-25c-10.667 -1.33301 -18.667 -2 -24 -2zM131 486.999v-23.001v-13
c0 -15.333 2.5 -25.833 7.5 -31.5s12.5 -8.5 22.5 -8.5c8.66699 0.666992 15.334 1 20.001 1h66c30 0 54.667 11.333 74 34s29 50.667 29 84c0 29.333 -10.833 53.5 -32.5 72.5s-47.834 28.5 -78.501 28.5c-29.333 0 -54.5 -9.16699 -75.5 -27.5
s-31.5 -42.166 -31.5 -71.499z" />
    <glyph glyph-name="C" unicode="C" horiz-adv-x="540" 
d="M502 101v-87c-39.333 -14.667 -79 -22 -119 -22c-99.333 0 -184 35.333 -254 106s-105 155.667 -105 255c0 97.333 35.167 180.5 105.5 249.5s154.5 103.5 252.5 103.5c42.667 0 83 -6 121 -18v-89c-38 18 -78.333 27 -121 27c-75.333 0 -139.666 -27 -192.999 -81
s-80 -119 -80 -195c0 -75.333 26.667 -140.333 80 -195s117.666 -82 192.999 -82c22.667 0 44 2.5 64 7.5s38.667 11.833 56 20.5z" />
    <glyph glyph-name="D" unicode="D" horiz-adv-x="551" 
d="M47 -1l0.000976562 715h16h15h13h31.5c8.33301 0 16.166 0.333008 23.499 1c104 0 193 -32.333 267 -97c77.333 -68 116 -153 116 -255c0 -124 -44 -219.333 -132 -286c-67.333 -51.333 -142 -77 -224 -77zM142.001 117c0 -22.667 15.667 -34.001 47 -34.001
c51.333 0 103.333 24 156 72c62 56.667 93 126.334 93 209.001c0 74.667 -32.333 139 -97 193c-55.333 46.667 -108.333 70 -159 70c-26.667 0 -40 -9.33301 -40 -28v-482z" />
    <glyph glyph-name="E" unicode="E" horiz-adv-x="409" 
d="M47 -2l-0.000976562 711.001h327v-82h-193h-12c-15.333 0 -24.666 -2 -27.999 -6s-5 -10 -5 -18v-12l-1 -121c0 -15.333 2.33301 -25.833 7 -31.5s12.667 -8.5 24 -8.5h10h185v-86h-189c-8 0 -13.667 -0.333008 -17 -1
c-4.66699 -0.666992 -9.16699 -3.33398 -13.5 -8.00098s-6.5 -12 -6.5 -22v-9l1 -174l2 -33c1.33301 -2 4.5 -3.66699 9.5 -5s13.167 -2 24.5 -2h210v-92h-335z" />
    <glyph glyph-name="F" unicode="F" horiz-adv-x="381" 
d="M48 -2l0.000976562 711.001h327v-81h-194c-8 0 -15.833 -0.166992 -23.5 -0.5s-13 -2.33301 -16 -6s-4.5 -9.5 -4.5 -17.5v-12v-122v-13c0 -6.66699 1.66699 -12.667 5 -18c4 -4 8.66699 -6.5 14 -7.5s12.666 -1.5 21.999 -1.5h184v-85h-189
c-11.333 0 -18 -0.333008 -20 -1c-2.66699 -0.666992 -6 -3.33398 -10 -8.00098s-6 -15 -6 -31v-307h-89z" />
    <glyph glyph-name="G" unicode="G" horiz-adv-x="602" 
d="M478 335l90.002 0.000976562v-291c-16 -12.667 -35.333 -23.334 -58 -32.001c-36 -13.333 -76.667 -20 -122 -20c-100 0 -185.667 35.667 -257 107s-107 157.333 -107 258c0 98 35.5 181.167 106.5 249.5s156.5 102.5 256.5 102.5c22.667 0 41 -1.16699 55 -3.5
s32 -7.16602 54 -14.499v-84c-17.333 7.33301 -34.833 12.666 -52.5 15.999s-36.5 5 -56.5 5c-76 0 -141.167 -26.833 -195.5 -80.5s-81.5 -118.167 -81.5 -193.5c0 -78 25.5 -144 76.5 -198s117.833 -81 200.5 -81c25.333 0 49.666 2.33301 72.999 7
c7.33301 2 12.166 5.5 14.499 10.5s3.5 11.833 3.5 20.5v14v208z" />
    <glyph glyph-name="H" unicode="H" horiz-adv-x="616" 
d="M149 351c-4 -2.66699 -6.00098 -13.332 -6.00098 -31.999v-17.5c0 -5.66699 0.333008 -11.167 1 -16.5v-286h-96v711h96v-205v-25c0 -6 0.166992 -11.833 0.5 -17.5s2.33301 -10.334 6 -14.001s12.834 -5.5 27.501 -5.5h248h13c10 0 17.333 0.5 22 1.5
s7.33398 3.83301 8.00098 8.5c2 5.33301 3 12.333 3 21c-0.666992 10.667 -1 18 -1 22v214h96v-711h-95v302v22c0 14.667 -1.33301 23.667 -4 27c-2.66699 4 -8.33398 6 -17.001 6c-8 -0.666992 -14 -1 -18 -1h-247h-15c-10 0 -17.333 -1.33301 -22 -4z" />
    <glyph glyph-name="I" unicode="I" horiz-adv-x="194" 
d="M48 -1v716h97v-716h-97z" />
    <glyph glyph-name="J" unicode="J" horiz-adv-x="305" 
d="M174 282l-0.000976562 427h84v-435c0 -38 -1.66699 -67 -5 -87s-12.666 -41.667 -27.999 -65c-27.333 -42 -58.833 -73.333 -94.5 -94s-77.5 -31 -125.5 -31v90c32 0 58.167 5 78.5 15s39.5 27.333 57.5 52c14 18 23 36.5 27 55.5s6 43.167 6 72.5z" />
    <glyph glyph-name="K" unicode="K" horiz-adv-x="529" 
d="M325 284c-22 19.333 -43.834 34.167 -65.501 44.5s-44.834 15.5 -69.501 15.5c-14 0 -29 -2 -45 -6v-340h-98v711h98v-356c7.33301 2.66699 14.5 5.66699 21.5 9s14.5 9.5 22.5 18.5s13.333 15.667 16 20l16 25.5l182 283h106l-173 -262
c-7.33301 -10 -12.666 -17.667 -15.999 -23c-6.66699 -10 -10 -17.333 -10 -22c0 -3.33301 1.33301 -6 4 -8c56 -36.667 99.333 -76.667 130 -120c37.333 -52.667 56 -111 56 -175v-101h-84v58c0 41.333 -6 80 -18 116c-15.333 46 -39.666 83.333 -72.999 112z" />
    <glyph glyph-name="L" unicode="L" horiz-adv-x="391" 
d="M47 0v711h97v-587c0 -15.333 1 -25 3 -29s8.66699 -6 20 -6h17h198v-89h-335z" />
    <glyph glyph-name="M" unicode="M" horiz-adv-x="858" 
d="M143 467v-467h-95v471c0 66 17.333 122 52 168c37.333 50 87.666 75 150.999 75c44.667 0 81 -9 109 -27l68 -58c18.667 22.667 41.334 42.334 68.001 59.001c30 18.667 67.667 28 113 28c60 0 108 -23.5 144 -70.5s54 -106.167 54 -177.5v-468h-95v467
c0 42.667 -8.66699 79.667 -26 111c-20 36 -47.667 54 -83 54c-50.667 0 -86.667 -16 -108 -48c-16.667 -25.333 -25 -61.333 -25 -108v-476h-92v474c0 62 -11.333 105 -34 129c-19.333 20 -47.333 30 -84 30c-45.333 0 -77.333 -17.667 -96 -53
c-14 -26.667 -21 -64.334 -21 -113.001z" />
    <glyph glyph-name="N" unicode="N" horiz-adv-x="601" 
d="M133 -2l-79.999 0.000976562v711l359 -415c10 -12 18.667 -21 26 -27c10.667 -8.66699 18 -11.667 22 -9c3.33301 2 5.66602 9.16699 6.99902 21.5s2 25.166 2 38.499v25v366h85v-716l-366 424c-10 12.667 -15.667 19.667 -17 21c-8 7.33301 -16 9.66602 -24 6.99902
c-10 -3.33301 -15 -12.666 -15 -27.999c0.666992 -10.667 1 -18.667 1 -24v-395z" />
    <glyph glyph-name="O" unicode="O" horiz-adv-x="760" 
d="M24 349c0 98 35.168 181.499 105.501 250.499s155.166 103.5 254.499 103.5c97.333 0 180.333 -35.333 249 -106s103 -155 103 -253c0 -97.333 -35 -180.666 -105 -249.999s-154 -104 -252 -104c-97.333 0 -180.833 35.167 -250.5 105.5s-104.5 154.833 -104.5 253.5z
M384.001 620.999c-76 0 -141 -26.667 -195 -80s-81 -118.333 -81 -195c0 -76 27 -140.667 81 -194s119 -80 195 -80s140.667 26.667 194 80s80 118 80 194s-26.833 140.833 -80.5 194.5s-118.167 80.5 -193.5 80.5z" />
    <glyph glyph-name="P" unicode="P" horiz-adv-x="575" 
d="M131 -1l-83.001 1v471c0 74.667 22.333 133.334 67 176.001s106 64 184 64c66 0 123.333 -21.333 172 -64s76.334 -97.334 83.001 -164.001c0.666992 -4 1 -8 1 -12v-11c0 -62.667 -20.667 -117.167 -62 -163.5s-94 -75.5 -158 -87.5c-6 -1.33301 -13 -2.33301 -21 -3
s-15.333 -1 -22 -1c-32 0 -61.667 6.66699 -89 20l-69 45c-2 0 -3 -2.33301 -3 -7v-264zM463.999 462c0 46 -16.333 85.332 -49 117.999s-71.667 49 -117 49c-43.333 0 -81 -15.667 -113 -47s-48 -68.666 -48 -111.999c0 -53.333 15.5 -95.833 46.5 -127.5
s70.167 -47.5 117.5 -47.5c45.333 0 83.833 16.167 115.5 48.5s47.5 71.833 47.5 118.5z" />
    <glyph glyph-name="Q" unicode="Q" horiz-adv-x="764" 
d="M736 335c0 -36.667 -3.00098 -68.001 -9.00098 -94.001l-21 -70c0 -2 0.666992 -5 2 -9c9.33301 -24 19 -47.667 29 -71c8 -24 12 -49.333 12 -76l-1 -86l-78 1l1 85c0 27.333 -3.5 46.333 -10.5 57s-16.167 15 -27.5 13c-34 -32.667 -73 -58.167 -117 -76.5
s-90 -27.5 -138 -27.5c-97.333 0 -180.666 35.333 -249.999 106s-104 155 -104 253c0 98.667 35 182.334 105 251.001s154.667 103 254 103c98 0 181.333 -35 250 -105s103 -154.667 103 -254zM622.999 238.999c16 -5.33301 26.334 4.66699 31.001 30c2.66699 14 4 37 4 69
c0 75.333 -26.833 139.833 -80.5 193.5s-118.5 80.5 -194.5 80.5c-74 0 -136.5 -26.333 -187.5 -79s-80.5 -117.667 -88.5 -195c-0.666992 -4.66699 -1 -11.667 -1 -21c0 -60 24.667 -115 74 -165l81 -49c25.333 46 46.333 77.667 63 95c21.333 22 50 40 86 54
c25.333 10 53 15 83 15c21.333 0 41.666 -2.33301 60.999 -7s42.333 -11.667 69 -21zM343 70.999c7.33301 -9.33301 21.001 -14 41.001 -14c37.333 0 80.166 13.167 128.499 39.5s68.833 47.833 61.5 64.5c-5.33301 10.667 -16.833 19.167 -34.5 25.5s-37.167 9.5 -58.5 9.5
c-20 0 -38.833 -3 -56.5 -9s-36.167 -21.333 -55.5 -46s-29 -44.667 -29 -60c0 -4.66699 1 -8 3 -10z" />
    <glyph glyph-name="R" unicode="R" horiz-adv-x="485" 
d="M126 247l-0.000976562 -248.001h-79v480c0 68 20.167 123.5 60.5 166.5s91.5 64.5 153.5 64.5c58 0 107 -21.333 147 -64s60 -93 60 -151c0 -63.333 -20.667 -113.666 -62 -150.999c-30 -27.333 -68.667 -46.333 -116 -57c-5.33301 -0.666992 -8 -3.33398 -8 -8.00098
c0 -4 2.16699 -9.83301 6.5 -17.5s10.833 -17.5 19.5 -29.5l169 -232l-96 -1l-207 273c-10 14.667 -16.667 23.334 -20 26.001c-6 4.66699 -12.333 6.33398 -19 5.00098c-3.33301 -0.666992 -5.66602 -4.83398 -6.99902 -12.501s-2 -16.167 -2 -25.5v-18zM264.999 627.999
c-36 0 -66.668 -13.332 -92.001 -39.999s-38 -58 -38 -94c0 -36.667 12.333 -67.334 37 -92.001s56.334 -37 95.001 -37c34.667 0 63.167 13.5 85.5 40.5s33.5 58.833 33.5 95.5c0 34 -11.667 63.667 -35 89s-52 38 -86 38z" />
    <glyph glyph-name="S" unicode="S" horiz-adv-x="453" 
d="M305 571c-14 24.667 -26.8311 40.999 -38.498 48.999s-28.167 12 -49.5 12c-26 0 -48 -10.333 -66 -31s-27 -44.334 -27 -71.001c0 -32.667 27 -60.667 81 -84c85.333 -36.667 135.666 -60.667 150.999 -72c54 -40 81 -97.333 81 -172c0 -58 -20.833 -107.5 -62.5 -148.5
s-90.167 -61.5 -145.5 -61.5c-46.667 0 -90.334 14.667 -131.001 44c-44 32 -71.667 72.667 -83 122l82 35c6.66699 -33.333 21.5 -60.666 44.5 -81.999s51.167 -32 84.5 -32s62.666 12.333 87.999 37s38 53.334 38 86.001c0 57.333 -27 99.666 -81 126.999l-151 61
c-54 29.333 -81 75.666 -81 138.999c0 50.667 16.167 93.834 48.5 129.501s75.5 53.5 129.5 53.5c36.667 0 69.834 -9.66699 99.501 -29s50.167 -45.666 61.5 -78.999z" />
    <glyph glyph-name="T" unicode="T" horiz-adv-x="482" 
d="M7 624l-0.000976562 86.001h471v-86h-144c-8 0 -16.167 -0.166992 -24.5 -0.5s-14 -2.33301 -17 -6s-4.5 -9.83398 -4.5 -18.501v-13v-587h-98v586c0 16 -1.66699 26 -5 30s-7.66602 6.66699 -12.999 8c-3.33301 0.666992 -9 1 -17 1h-148z" />
    <glyph glyph-name="U" unicode="U" horiz-adv-x="550" 
d="M37 272l-0.00195312 444h89v-444c0 -54 11 -97.667 33 -131c26.667 -40 66.667 -60 120 -60c57.333 0 98 20.333 122 61c18 30.667 27 74.667 27 132v442h89v-442c0 -84 -18 -150 -54 -198c-41.333 -55.333 -103.666 -83 -186.999 -83c-75.333 0 -134.666 27 -177.999 81
c-40.667 50.667 -61 116.667 -61 198z" />
    <glyph glyph-name="V" unicode="V" horiz-adv-x="549" 
d="M278 260c6 0 19.333 26.332 40 78.999c14.667 38 36.5 98.333 65.5 181s52.167 146.334 69.5 191.001h97l-275 -719l-272 719h102l91 -263c44.667 -125.333 72 -188 82 -188z" />
    <glyph glyph-name="W" unicode="W" horiz-adv-x="733" 
d="M152 -8l-150.001 718.998h90c8.66699 -32.667 21.167 -87.667 37.5 -165s27.833 -130.666 34.5 -159.999c12 -52.667 19.667 -79 23 -79c4.66699 0 18.667 24.333 42 73l73 161l72 159c16.667 -31.333 40.334 -83 71.001 -155c42 -98 64.333 -149.667 67 -155
c21.333 -47.333 35 -71 41 -71c6.66699 0 25 74.333 55 223l34 168h89l-141 -710c-6.66699 6.66699 -27 49.334 -61 128.001l-93 212c-34 75.333 -54 113 -60 113c-7.33301 0 -32.333 -45.667 -75 -137z" />
    <glyph glyph-name="X" unicode="X" horiz-adv-x="502" 
d="M194 391c0 12.667 -9.33398 38.6689 -28.001 78.002l-118 242h103l58 -138c22.667 -52 38.334 -78.667 47.001 -80c5.33301 0 12.333 8 21 24l95 194h98l-111 -212.5c-33.333 -61 -49.666 -95.167 -48.999 -102.5c0 -8 7.33301 -27.667 22 -59
c0 -0.666992 22 -44.334 66 -131.001l103 -207l-102 1l-112 237c-15.333 32 -27 47.667 -35 47c-4.66699 0 -21.167 -29.167 -49.5 -87.5l-98.5 -196.5l-104 -1l122 233c30 58 49.667 97.167 59 117.5s13.666 34.166 12.999 41.499z" />
    <glyph glyph-name="Y" unicode="Y" horiz-adv-x="528" 
d="M211 260c0 22.667 -12 61.333 -36 116c-18.667 42.667 -46 98.334 -82 167.001l-89 168h105c57.333 -123.333 97 -204.666 119 -243.999c17.333 -31.333 30.333 -47 39 -47c7.33301 0 18 11 32 33c11.333 18 29.333 51 54 99c52.667 102.667 80 155.667 82 159h97
c-8.66699 -17.333 -38 -70.333 -88 -159c-38 -67.333 -68 -124.333 -90 -171c-28 -58.667 -42 -99.334 -42 -122.001v-22v-17v-37v-33v-29v-24v-20v-16v-13v-32.5c0 -7.66699 -0.333008 -12.834 -1 -15.501h-100v102.5v157.5z" />
    <glyph glyph-name="Z" unicode="Z" horiz-adv-x="470" 
d="M60 626l-0.000976562 85h408l-80 -158l-149 -296l-82 -164c-0.666992 -4 1.83301 -6.5 7.5 -7.5s13.834 -1.5 24.501 -1.5h261v-84h-454l315 612c0 5.33301 -3 8.83301 -9 10.5s-15 2.5 -27 2.5h-17z" />
    <glyph glyph-name="bracketleft" unicode="[" horiz-adv-x="242" 
d="M47 -150l-0.000976562 859h167v-82h-33h-12c-15.333 0 -24.666 -2 -27.999 -6s-5 -10 -5 -18v-12v-609l2 -33c1.33301 -2 4.5 -3.66699 9.5 -5s13.167 -2 24.5 -2h50v-92h-175z" />
    <glyph glyph-name="backslash" unicode="\" horiz-adv-x="551" 
d="M554 -1h-73l-480 716h73z" />
    <glyph glyph-name="bracketright" unicode="]" horiz-adv-x="250" 
d="M207 -150h-175.003v92h50c6.66699 0 13.334 0.166992 20.001 0.5s11.334 2.5 14.001 6.5l2 33v609v12c0 8 -1.66699 14 -5 18s-12.666 6 -27.999 6h-12h-33v82h167v-859z" />
    <glyph glyph-name="asciicircum" unicode="^" horiz-adv-x="316" 
d="M258 448l-92 31l-96 -31v47l96 32l92 -32v-47z" />
    <glyph glyph-name="underscore" unicode="_" horiz-adv-x="352" 
d="M375 -170v-59h-383v59h383z" />
    <glyph glyph-name="grave" unicode="`" 
d="M377 746l-187 32v47l187 -32v-47z" />
    <glyph glyph-name="a" unicode="a" horiz-adv-x="550" 
d="M251 369c-42 0 -78.001 -14.666 -108.001 -43.999s-45 -65.333 -45 -108s14.833 -78.834 44.5 -108.501s65.834 -44.5 108.501 -44.5s78.667 15.333 108 46s44 67.667 44 111c0 41.333 -15 76.333 -45 105s-65.667 43 -107 43zM468.999 251.001l105.999 -253l-89 2
l-46 100c-19.333 -32 -46 -57.833 -80 -77.5s-70.333 -29.5 -109 -29.5c-62.667 0 -116.167 22.167 -160.5 66.5s-66.5 97.5 -66.5 159.5c0 61.333 22.167 113.5 66.5 156.5s97.833 64.5 160.5 64.5c55.333 0 103.333 -18 144 -54s65.334 -81 74.001 -135z" />
    <glyph glyph-name="b" unicode="b" horiz-adv-x="511" 
d="M48 212v487h74v-300v-19c42 38.667 93 58 153 58c61.333 0 113.5 -22.167 156.5 -66.5s64.5 -97.5 64.5 -159.5c0 -61.333 -21.5 -113.5 -64.5 -156.5s-95.167 -64.5 -156.5 -64.5c-62 0 -115.333 21.667 -160 65s-67 95.333 -67 156zM275 367
c-42 0 -78.001 -14.666 -108.001 -43.999s-45 -65.333 -45 -108s14.833 -78.834 44.5 -108.501s65.834 -44.5 108.501 -44.5s78.667 15.333 108 46s44 67.667 44 111c0 41.333 -15 76.333 -45 105s-65.667 43 -107 43z" />
    <glyph glyph-name="c" unicode="c" horiz-adv-x="370" 
d="M343 413l-0.00195312 -79c-29.333 24 -62 36 -98 36c-39.333 0 -73.666 -13.333 -102.999 -40c-33.333 -30 -50 -69 -50 -117c0 -46 16.333 -82 49 -108c36.667 -28.667 71.667 -43 105 -43c16.667 0 32.834 3.16699 48.501 9.5s31.167 15.833 46.5 28.5v-84
c-34 -16 -67.667 -24 -101 -24c-54.667 0 -104.667 21 -150 63c-22 21.333 -38.833 46 -50.5 74s-17.5 57.667 -17.5 89c0 36 7.33301 69.5 22 100.5s36 56.833 64 77.5c42 30 85.333 45 130 45c35.333 0 70.333 -9.33301 105 -28z" />
    <glyph glyph-name="d" unicode="d" horiz-adv-x="520" 
d="M471 213c0 -60 -21.168 -111.834 -63.501 -155.501s-92.833 -65.5 -151.5 -65.5s-112 21.333 -160 64s-72 92 -72 148c0 60.667 20.333 114.334 61 161.001c43.333 49.333 95.666 74 156.999 74c25.333 0 49.333 -4 72 -12s43.334 -19.333 62.001 -34
c4.66699 -3.33301 7.33398 -5 8.00098 -5c2.66699 0 4 4.33301 4 13v300h83v-488zM392.999 209.999c0 41.333 -13.332 77.332 -39.999 107.999c-28.667 32.667 -63.667 49 -105 49c-42.667 0 -78.334 -16.167 -107.001 -48.5s-43 -68.833 -43 -109.5
c0 -39.333 15 -72.666 45 -99.999s65.333 -41 106 -41c40 0 74 13.667 102 41s42 61 42 101z" />
    <glyph glyph-name="e" unicode="e" horiz-adv-x="497" 
d="M478 187l-322.002 -0.000976562c-14.667 0 -25.5 -0.666992 -32.5 -2s-11.167 -6 -12.5 -14c-4 -21.333 9.33301 -44.833 40 -70.5s62.667 -38.5 96 -38.5c21.333 0 43.333 5 66 15c15.333 6.66699 32 16.667 50 30l45 -52c-25.333 -21.333 -50.666 -37 -75.999 -47
s-54.333 -15 -87 -15c-61.333 0 -113.5 22.5 -156.5 67.5s-64.5 98.833 -64.5 161.5c0 60 22 111.333 66 154s96.667 64 158 64c62.667 0 116.834 -22.5 162.501 -67.5s68.5 -98.5 68.5 -160.5c0 -11.333 -0.333008 -19.666 -1 -24.999zM392.998 268.999
c-7.33301 29.333 -23.834 53.3311 -49.501 71.998s-55.167 28 -88.5 28c-32.667 0 -64.167 -11.667 -94.5 -35s-44.166 -46.666 -41.499 -69.999c0.666992 -3.33301 3.66699 -5.66602 9 -6.99902s11.333 -2 18 -2h13h186h17c11.333 0 19.833 1 25.5 3s7.5 5.66699 5.5 11z
" />
    <glyph glyph-name="f" unicode="f" horiz-adv-x="268" 
d="M164 321l-0.000976562 -323h-80v320v21c0 10 -2.16699 18 -6.5 24s-10.166 10.167 -17.499 12.5s-16.333 3.5 -27 3.5h-24v70h7c6 -0.666992 12 -1 18 -1c16.667 0 28.5 0.666992 35.5 2s10.833 4.33301 11.5 9c4 38.667 9.66699 69.334 17 92.001s20.333 46 39 70
c9.33301 12.667 28.333 29 57 49s49.667 31 63 33l32 6v-74l-15 -5c-10 -2.66699 -23 -10 -39 -22c-20.667 -15.333 -35.667 -31.333 -45 -48c-6.66699 -12 -12.167 -25.167 -16.5 -39.5s-6.5 -27.5 -6.5 -39.5c0 -9.33301 1.5 -16.333 4.5 -21s7.5 -8.16699 13.5 -10.5
s15.667 -3.5 29 -3.5h25h29v-67h-22c-26 0 -44.333 -0.666992 -55 -2s-18 -6.33301 -22 -15s-6 -16.334 -6 -23.001c0.666992 -6.66699 1 -12.667 1 -18z" />
    <glyph glyph-name="g" unicode="g" horiz-adv-x="505" 
d="M472 213v-242.999c0 -69.333 -25.333 -128.666 -76 -177.999s-111 -74 -181 -74c-48 0 -89.333 8.16699 -124 24.5s-66 43.166 -94 80.499l58 40c19.333 -26.667 42 -45.834 68 -57.501s56.667 -17.5 92 -17.5c48 0 89.833 17.5 125.5 52.5s53.5 76.167 53.5 123.5
c-0.666992 6.66699 -1 11.667 -1 15v31.5c0 10.333 0.333008 20.5 1 30.5c-12 -14 -32.333 -25.5 -61 -34.5s-56 -13.5 -82 -13.5c-69.333 0 -124.5 21.5 -165.5 64.5s-61.5 96.833 -61.5 161.5c0 61.333 22.167 113.5 66.5 156.5s97.833 64.5 160.5 64.5
c63.333 0 116 -20.333 158 -61s63 -96 63 -166zM251 369.001c-42 0 -77.999 -14.667 -107.999 -44s-45 -65.333 -45 -108c0 -42 14.667 -77 44 -105s65.666 -42 108.999 -42c42.667 0 78.667 14.333 108 43s44 64.667 44 108c0 40.667 -14.833 75.5 -44.5 104.5
s-65.5 43.5 -107.5 43.5z" />
    <glyph glyph-name="h" unicode="h" horiz-adv-x="464" 
d="M115 255l0.000976562 -256.999h-68v711h71v-248v-21c0 -10 0.833008 -17.5 2.5 -22.5s5.16699 -5.83301 10.5 -2.5c10 5.33301 27 11.166 51 17.499s47.333 9.5 70 9.5c18 0 33.167 -1.5 45.5 -4.5s25.166 -8.5 38.499 -16.5c27.333 -17.333 47.833 -37.333 61.5 -60
s20.5 -49.667 20.5 -81v-282h-76v248c0 34.667 -8 63.667 -24 87c-18.667 26.667 -43.667 40 -75 40c-32 0 -61.333 -11.333 -88 -34s-40 -50.667 -40 -84z" />
    <glyph glyph-name="i" unicode="i" horiz-adv-x="178" 
d="M47 -2v449h74v-449h-74zM31 556c0 14 5 26.001 15 36.001s22.333 15 37 15c14 0 26 -5 36 -15s15 -22 15 -36s-5 -26 -15 -36s-22 -15 -36 -15c-14.667 0 -27 4.66699 -37 14s-15 21.666 -15 36.999z" />
    <glyph glyph-name="j" unicode="j" horiz-adv-x="177" 
d="M56 447l75 -0.000976562v-467c0 -36 -4 -66.167 -12 -90.5s-23 -50.5 -45 -78.5c-12 -15.333 -34 -32.666 -66 -51.999c-40 -24 -74.667 -36 -104 -36v74c27.333 3.33301 52.5 12.333 75.5 27s40.167 31.667 51.5 51c8.66699 14.667 15 29.667 19 45s6 41 6 77v450z
M35 549.999c0 14.667 5 27 15 37s22.333 15 37 15c14 0 26 -5 36 -15s15 -22.333 15 -37c0 -13.333 -5 -25 -15 -35s-22 -15 -36 -15c-14.667 0 -27 4.66699 -37 14s-15 21.333 -15 36z" />
    <glyph glyph-name="k" unicode="k" horiz-adv-x="403" 
d="M132 -1l-85.002 1.00195l1 712h84v-388c-0.666992 -13.333 -1 -23 -1 -29c0 -20 5 -30 15 -30c8 0 16.333 6 25 18c6.66699 9.33301 11.334 15.666 14.001 18.999l113 146h97l-103 -132c-6 -7.33301 -11.667 -14.833 -17 -22.5s-8 -15.167 -8 -22.5
c16 -11.333 28.333 -20.333 37 -27c27.333 -22 46.333 -41 57 -57c18 -28 30.333 -56.167 37 -84.5s10 -62.5 10 -102.5h-79c0 36.667 -4.33301 68 -13 94s-24 51 -46 75c-14 15.333 -30.833 27.166 -50.5 35.499s-37.5 12.5 -53.5 12.5c-8 0 -14.667 -1.83301 -20 -5.5
s-9.16602 -8 -11.499 -13s-3.5 -11.5 -3.5 -19.5c0.666992 -10 1 -17.667 1 -23v-157z" />
    <glyph glyph-name="l" unicode="l" horiz-adv-x="168" 
d="M47 0v711h74v-711h-74z" />
    <glyph glyph-name="m" unicode="m" horiz-adv-x="730" 
d="M228 445c26.667 0 52 -5.83301 76 -17.5s44.333 -27.5 61 -47.5c35.333 44 83 66 143 66c46.667 0 87.167 -15.833 121.5 -47.5s51.5 -70.5 51.5 -116.5v-282h-70v252c0 31.333 -9.66699 58.5 -29 81.5s-44 34.5 -74 34.5s-55.333 -11.667 -76 -35s-31 -50.333 -31 -81
v-252h-70v255c0 31.333 -9.66699 58.5 -29 81.5s-44 34.5 -74 34.5s-56.167 -10.5 -78.5 -31.5s-33.5 -46.167 -33.5 -75.5v-266h-69v292c0 45.333 18 82.5 54 111.5s78.333 43.5 127 43.5z" />
    <glyph glyph-name="n" unicode="n" horiz-adv-x="464" 
d="M117 263l0.000976562 -263h-69v288c0 54 19 94.333 57 121c33.333 23.333 76.333 35 129 35c52 0 94.667 -12.333 128 -37c38 -28 57 -67.667 57 -119v-288h-73v254c0 40.667 -10.167 70.167 -30.5 88.5s-47.5 27.5 -81.5 27.5c-32.667 0 -60.334 -9.16699 -83.001 -27.5
s-34 -44.833 -34 -79.5z" />
    <glyph glyph-name="o" unicode="o" horiz-adv-x="498" 
d="M27 219c0 61.333 22.167 113.5 66.5 156.5s97.833 64.5 160.5 64.5c61.333 0 113.5 -22.167 156.5 -66.5s64.5 -97.5 64.5 -159.5c0 -61.333 -21.5 -113.5 -64.5 -156.5s-95.167 -64.5 -156.5 -64.5c-62.667 0 -116.167 22.167 -160.5 66.5s-66.5 97.5 -66.5 159.5z
M254 369c-42 0 -78.001 -14.666 -108.001 -43.999s-45 -65.333 -45 -108s14.833 -78.834 44.5 -108.501s65.834 -44.5 108.501 -44.5s78.667 15.333 108 46s44 67.667 44 111c0 41.333 -15 76.333 -45 105s-65.667 43 -107 43z" />
    <glyph glyph-name="p" unicode="p" horiz-adv-x="515" 
d="M48 -272v485c0 70.667 22.667 127 68 169c42 38.667 95 58 159 58c61.333 0 113.5 -22.167 156.5 -66.5s64.5 -97.833 64.5 -160.5c0 -61.333 -21.333 -113.333 -64 -156s-95 -64 -157 -64c-39.333 0 -72.666 6 -99.999 18c-8.66699 4 -18.334 10 -29.001 18
c-6.66699 2 -11.5 -0.666992 -14.5 -8s-4.5 -15.666 -4.5 -24.999v-9c0 -0.666992 0.333008 -1.33398 1 -2.00098v-257h-80zM275 369c-41.333 0 -77.167 -14.832 -107.5 -44.499s-45.5 -65.5 -45.5 -107.5s15 -78 45 -108s66 -45 108 -45s77.833 15.167 107.5 45.5
s44.5 67.166 44.5 110.499c0 41.333 -14.833 76.5 -44.5 105.5s-65.5 43.5 -107.5 43.5z" />
    <glyph glyph-name="q" unicode="q" horiz-adv-x="518" 
d="M387 23c-4 7.33301 -8 11 -12 11c-40 -27.333 -83.333 -41 -130 -41c-61.333 0 -113.5 21.5 -156.5 64.5s-64.5 95.167 -64.5 156.5c0 62 21.5 115.167 64.5 159.5s95.167 66.5 156.5 66.5c62 0 115.333 -21.333 160 -64s67 -95 67 -157l-1 -485h-77v258
c0 14.667 -2.33301 25 -7 31zM245 64c40 0 75.667 13.668 107 41.001c34 29.333 51 64.666 51 105.999c0 46.667 -15.833 84.667 -47.5 114s-68.5 44 -110.5 44c-41.333 0 -77 -14.333 -107 -43s-45 -63.667 -45 -105c0 -43.333 14.667 -80.333 44 -111s65.333 -46 108 -46z
" />
    <glyph glyph-name="r" unicode="r" horiz-adv-x="255" 
d="M120 194v-194.001h-73v181v22.5v15.5c0 50 4.16699 86.167 12.5 108.5s21.5 42.5 39.5 60.5c22 22 45 37.5 69 46.5s52.667 13.5 86 13.5v-73c-25.333 0 -46.833 -3.66699 -64.5 -11s-32.167 -21.166 -43.5 -41.499s-18.5 -38 -21.5 -53s-4.5 -34.167 -4.5 -57.5v-18z
" />
    <glyph glyph-name="s" unicode="s" horiz-adv-x="342" 
d="M226 350c-6.66699 12 -15.166 21.668 -25.499 29.001s-21.833 10.333 -34.5 9c-14.667 -2.66699 -25.834 -9.83398 -33.501 -21.501s-11.5 -25.167 -11.5 -40.5c0 -20.667 34.167 -41.834 102.5 -63.501s102.5 -62.5 102.5 -122.5c0 -43.333 -14.667 -78 -44 -104
s-65.333 -39 -108 -39c-45.333 0 -83.166 15.5 -113.499 46.5s-45.5 70.5 -45.5 118.5l75 -25c-2.66699 -26 4.16602 -45 20.499 -57s36.833 -18 61.5 -18c23.333 0 43.333 7.16699 60 21.5s25 32.833 25 55.5c0 26.667 -35.333 51.334 -106 74.001s-106 58.667 -106 108
c0 33.333 12.167 61.833 36.5 85.5s53.833 35.5 88.5 35.5c32 0 59.5 -10 82.5 -30s36.167 -46 39.5 -78z" />
    <glyph glyph-name="t" unicode="t" horiz-adv-x="247" 
d="M119 570l-0.00195312 -63.001c0 -10 0.166992 -20.833 0.5 -32.5s1.5 -18.834 3.5 -21.501c2.66699 -2.66699 7.66699 -4.16699 15 -4.5s15.333 -0.5 24 -0.5h65v-75h-62c-9.33301 0 -18.666 -0.166992 -27.999 -0.5s-14.666 -3.16602 -15.999 -8.49902
c-0.666992 -2 -1 -7.33301 -1 -16v-21v-24v-13v-65c0 -28.667 2.66699 -50.667 8 -66s12.666 -29 21.999 -41c5.33301 -8 17.833 -17.667 37.5 -29s35.834 -17 48.501 -17v-75c-33.333 3.33301 -63 11.833 -89 25.5s-48.333 33.834 -67 60.501c-14 20 -23.333 40.333 -28 61
s-7 41.667 -7 63v30v49v6v15v17c0 20.667 -1 34 -3 40s-10.667 9 -26 9h-18v75h13c17.333 0 27 1.66699 29 5c1.33301 1.33301 2.33301 6 3 14s1 15 1 21v21v61h75z" />
    <glyph glyph-name="u" unicode="u" horiz-adv-x="476" 
d="M118 448l-0.000976562 -268c0 -31.333 11.833 -57.666 35.5 -78.999s51.834 -32 84.501 -32c32 0 59.333 11.667 82 35s34 51.666 34 84.999v259h75v-295c0 -46.667 -19.167 -85 -57.5 -115s-82.833 -45 -133.5 -45c-51.333 0 -95.333 14.333 -132 43
c-39.333 30.667 -59 69.667 -59 117v295h71z" />
    <glyph glyph-name="v" unicode="v" horiz-adv-x="446" 
d="M285 0h-95l-192 447h89l103 -235c10.667 -28 20.334 -50 29.001 -66s15 -24 19 -24c9.33301 0 25.666 31.667 48.999 95l74 230h85z" />
    <glyph glyph-name="w" unicode="w" horiz-adv-x="689" 
d="M162 -2l-165.999 448.999h85l90 -248c4.66699 -13.333 9.66699 -26.5 15 -39.5s11.666 -19.5 18.999 -19.5c6 0 12 6.66699 18 20c3.33301 7.33301 7.66602 19.666 12.999 36.999l85 250h48l95 -255c3.33301 -10.667 7.33301 -20.667 12 -30c8 -15.333 15 -23 21 -23
c7.33301 0 14.333 7.66699 21 23c2.66699 6.66699 6.33398 17.334 11.001 32.001l85 253h80l-154 -449h-91l-73 204c-4.66699 14 -9 25.333 -13 34c-6 11.333 -11.333 17.333 -16 18s-9.5 -6.16602 -14.5 -20.499s-8.83301 -24.833 -11.5 -31.5l-71 -204h-88z" />
    <glyph glyph-name="x" unicode="x" horiz-adv-x="374" 
d="M280 166l117 -168.002h-93l-75 112c-6 10.667 -11 19 -15 25c-7.33301 11.333 -14 17 -20 17c-5.33301 0 -11.666 -4.66699 -18.999 -14c-2.66699 -3.33301 -8.66699 -12.666 -18 -27.999l-75 -112h-93l85 133l51 77c9.33301 15.333 13 25.333 11 30
c-8 16 -16.667 31.167 -26 45.5s-16 24.833 -20 31.5l-79 133h92l57 -98c5.33301 -9.33301 10.166 -16.166 14.499 -20.499s10.166 -6.5 17.499 -6.5c6.66699 0 12.334 3 17.001 9c2.66699 3.33301 6.66699 10 12 20l52 96h89l-85 -146
c-7.33301 -12 -14.5 -24.333 -21.5 -37s-10.5 -22.667 -10.5 -30c0 -8 3.66699 -18.667 11 -32c2 -4 10 -16.333 24 -37z" />
    <glyph glyph-name="y" unicode="y" horiz-adv-x="480" 
d="M357 192l-0.00195312 256h80v-364c0 -107.333 -23.333 -188.333 -70 -243c-40 -46.667 -96 -73.667 -168 -81c-8 -0.666992 -15 -1.16699 -21 -1.5s-10.667 -0.5 -14 -0.5c-38.667 0 -73.167 7.83301 -103.5 23.5s-59.166 39.5 -86.499 71.5l56 44
c18.667 -24 45.334 -42 80.001 -54c27.333 -9.33301 56.333 -14 87 -14c58 0 102 24 132 72c22 35.333 33 74 33 116c0 12 -1 19.667 -3 23c-1.33301 2.66699 -3 3 -5 1c-12.667 -14 -28 -26 -46 -36c-22.667 -12.667 -45 -19 -67 -19c-6 -0.666992 -10.667 -1 -14 -1
c-49.333 0 -91.833 19.5 -127.5 58.5s-53.5 85.167 -53.5 138.5v266h82v-262c0 -33.333 11 -62.333 33 -87s49 -37 81 -37c34 0 61.667 12.833 83 38.5s32 56.167 32 91.5z" />
    <glyph glyph-name="z" unicode="z" horiz-adv-x="365" 
d="M39 383v64.999h312l-186 -317c-10 -16.667 -16 -27 -18 -31c-6 -12 -7.33301 -20.333 -4 -25c2 -3.33301 5.33301 -5.66602 10 -6.99902c2.66699 -0.666992 7.66699 -1 15 -1h11h177v-67h-353l187 324l18 30c2.66699 6 2.66699 11.333 0 16
c-3.33301 5.33301 -7.83301 8.83301 -13.5 10.5s-13.167 2.5 -22.5 2.5h-133z" />
    <glyph glyph-name="braceleft" unicode="{" horiz-adv-x="352" 
d="M24 350c13.333 12.667 23.333 22.6641 30 29.9971c20.667 22.667 31 39.334 31 50.001c0 107.333 14 188 42 242c36 68.667 99 111 189 127v-80c-60 -15.333 -101 -49.666 -123 -102.999c-16.667 -40.667 -25 -102.667 -25 -186c0 -10.667 -9.33301 -27 -28 -49
c-6 -7.33301 -15.333 -17.666 -28 -30.999l28 -33c18.667 -23.333 28 -39 28 -47c0 -87.333 7 -148.666 21 -183.999c20 -50.667 61 -84.334 123 -101.001v-75c-94.667 18 -158 56.333 -190 115c-25.333 46.667 -38 128.334 -38 245.001c0 7.33301 -10 22.666 -30 45.999z
" />
    <glyph glyph-name="braceright" unicode="}" horiz-adv-x="352" 
d="M340 355c-13.333 -14 -23.333 -24.998 -30 -32.998c-20 -24 -30 -40 -30 -48c0 -116.667 -13 -198.334 -39 -245.001c-32 -58 -96 -96.333 -192 -115v75c62 16.667 103.333 50.334 124 101.001c15.333 37.333 23 98.666 23 183.999c0 7.33301 9.33301 23 28 47
c6 8 15.333 19.333 28 34c-12.667 12 -22 21.667 -28 29c-18.667 22 -28 38.667 -28 50c0 84.667 -8 146.667 -24 186c-22 53.333 -63.333 87.666 -124 102.999v80c90 -16 152.667 -58 188 -126c28.667 -55.333 43 -136.333 43 -243c0 -10.667 10 -27 30 -49
c6.66699 -7.33301 17 -17.333 31 -30z" />
    <glyph glyph-name="asciitilde" unicode="~" horiz-adv-x="276" 
d="M112 395c-10.667 0 -24.3301 -5 -40.9971 -15c-5.33301 -3.33301 -13 -8.66602 -23 -15.999v47c9.33301 7.33301 16.666 12.666 21.999 15.999c16.667 10.667 30.667 16 42 16c7.33301 0 16.666 -3.16699 27.999 -9.5l35 -19.5c10.667 0 24 5 40 15
c5.33301 3.33301 12.666 8.66602 21.999 15.999v-47c-8.66699 -7.33301 -15.667 -12.666 -21 -15.999c-16 -10.667 -29.667 -16 -41 -16c-8 0 -22 6.33301 -42 19c-10.667 6.66699 -17.667 10 -21 10z" />
    <glyph glyph-name="nonbreakingspace" unicode="&#xa0;" horiz-adv-x="500" 
 />
    <glyph glyph-name="exclamdown" unicode="&#xa1;" horiz-adv-x="195" 
d="M132 527l-1 -527h-83v527h84zM141 669c0 -16.667 -4.33301 -30.998 -13 -42.998s-20 -18 -34 -18c-18 0 -33.167 4.83301 -45.5 14.5s-18.5 22.167 -18.5 37.5s4.16699 28.666 12.5 39.999s19.833 17.666 34.5 18.999c16 2.66699 30.667 -1 44 -11s20 -23 20 -39z" />
    <glyph glyph-name="cent" unicode="&#xa2;" horiz-adv-x="374" 
d="M204 75c-42.667 6 -82.001 26.001 -118.001 60.001c-22 21.333 -38.833 46 -50.5 74s-17.5 57.667 -17.5 89c0 36 7.33301 69.5 22 100.5s36 56.833 64 77.5c31.333 23.333 64.666 37.666 99.999 42.999v76h41v-74c28.667 0 60 -9.33301 94 -28v-79
c-29.333 24 -60.666 36 -93.999 36v-308c15.333 0 30.833 3.16699 46.5 9.5s30.834 15.833 45.501 28.5v-84c-33.333 -16 -64 -24 -92 -24v-71h-41v74zM203.999 445.001c-23.333 -4.66699 -45.333 -16.334 -66 -35.001c-33.333 -30 -50 -69 -50 -117
c0 -46 16.333 -82 49 -108c22.667 -17.333 45 -29.666 67 -36.999v297z" />
    <glyph glyph-name="sterling" unicode="&#xa3;" horiz-adv-x="533" 
d="M351 535c0 24.667 -10.8291 46.168 -32.4961 64.501s-45.167 27.5 -70.5 27.5c-31.333 0 -55.5 -12.5 -72.5 -37.5s-25.5 -54.5 -25.5 -88.5c0 -41.333 12.333 -69.333 37 -84c6 -3.33301 15.667 -5 29 -5h22h66v-66h-48h-16c-6 0 -12.833 -0.333008 -20.5 -1
s-11.167 -4 -10.5 -10l9.5 -79.5c2.33301 -19 3.5 -37.5 3.5 -55.5c0 -20 -1.16699 -37 -3.5 -51s-6.83301 -28 -13.5 -42c-2.66699 -6 8.16602 -13.5 32.499 -22.5s47.5 -13.5 69.5 -13.5c9.33301 0 17.666 1 24.999 3c32 7.33301 57.833 24.166 77.5 50.499
s29.5 55.5 29.5 87.5h77c0 -55.333 -18 -103.333 -54 -144s-81.667 -64.667 -137 -72c-4 -0.666992 -10 -1 -18 -1c-18.667 0 -39.5 3.33301 -62.5 10s-45.833 13.667 -68.5 21c-10.667 0 -21 -2.66699 -31 -8c-24.667 -13.333 -39.334 -20 -44.001 -20
c-24 0 -42.333 3.33301 -55 10c-16.667 8.66699 -25 24 -25 46c0 8.66699 0.333008 15.334 1 20.001s3 12.167 7 22.5s15.667 18.166 35 23.499c21.333 4.66699 43 9.66699 65 15c9.33301 18.667 14 47.334 14 86.001c0 22.667 -1.83301 43.5 -5.5 62.5
s-9.5 35.833 -17.5 50.5c-3.33301 8 -11.333 12 -24 12h-73v66c4.66699 0 9.5 -0.166992 14.5 -0.5s10.167 -0.5 15.5 -0.5c10.667 0 18.667 1.16699 24 3.5s7 7.16602 5 14.499c-8 27.333 -12 53 -12 77c0 56 17.333 103 52 141s78 57 130 57
c47.333 0 87.666 -16 120.999 -48s52 -72 56 -120z" />
    <glyph glyph-name="yen" unicode="&#xa5;" horiz-adv-x="529" 
d="M210 244v15.998c0 22.667 -12 61.334 -36 116.001c-18.667 42.667 -46 98.334 -82 167.001l-89 168h105c57.333 -123.333 97 -204.666 119 -243.999c17.333 -31.333 30.333 -47 39 -47c7.33301 0 18 11 32 33c11.333 18 29.333 51 54 99
c52.667 102.667 80 155.667 82 159h97c-8.66699 -17.333 -38 -70.333 -88 -159c-38 -67.333 -68 -124.333 -90 -171c-28 -58.667 -42 -99.334 -42 -122.001v-15h58v-59h-59v-57h59v-59h-59v-69h-100l1 69h-53v59h53v57h-53v59h52z" />
    <glyph glyph-name="section" unicode="&#xa7;" horiz-adv-x="362" 
d="M163 233c8 -2 16.333 -3 25 -3c18.667 0 35.167 4.83301 49.5 14.5s23.5 23.167 27.5 40.5c1.33301 6.66699 2 11.667 2 15c0 15.333 -6.16699 29.5 -18.5 42.5s-28.166 21.833 -47.499 26.5c-8 2 -16.333 3 -25 3c-18.667 0 -35.167 -4.83301 -49.5 -14.5
s-23.5 -23.167 -27.5 -40.5c-1.33301 -6.66699 -2 -11.667 -2 -15c0 -15.333 6.16699 -29.5 18.5 -42.5s28.166 -21.833 47.499 -26.5zM308 113c0 -33.333 -12.833 -62.5 -38.5 -87.5s-55.834 -37.5 -90.501 -37.5c-31.333 0 -58 10.5 -80 31.5s-34.667 47.833 -38 80.5
l66 -16c6.66699 -12 15.167 -21.667 25.5 -29s21.833 -10.333 34.5 -9c14.667 2.66699 25.834 9.83398 33.501 21.501s11.5 25.167 11.5 40.5c0 20.667 -34.167 41.834 -102.5 63.501s-102.5 62.5 -102.5 122.5c0 34.667 10.333 64.667 31 90
c6.66699 8 17.334 17.333 32.001 28c-12 8.66699 -21.333 19.167 -28 31.5s-10 27.5 -10 45.5c0 33.333 12.167 61.833 36.5 85.5s53.833 35.5 88.5 35.5c32 0 59.5 -10 82.5 -30s36.167 -46 39.5 -78l-66 16c-6.66699 12 -15.167 21.667 -25.5 29s-21.833 10.333 -34.5 9
c-14.667 -2.66699 -25.834 -9.83398 -33.501 -21.501s-11.5 -25.167 -11.5 -40.5c0 -20.667 34.167 -41.834 102.5 -63.501s102.5 -62.5 102.5 -122.5c0 -26 -5.5 -49 -16.5 -69s-26.5 -36.333 -46.5 -49c8.66699 -10 15 -18 19 -24c12.667 -19.333 19 -37 19 -53z" />
    <glyph glyph-name="dieresis" unicode="&#xa8;" horiz-adv-x="342" 
d="M56 782c0 13.333 3.33203 24.333 9.99902 33s16.334 13 29.001 13c10.667 0 20.667 -3.66699 30 -11s14 -16.666 14 -27.999s-3 -21 -9 -29s-14.667 -12.667 -26 -14c-12 -2.66699 -23 -0.333984 -33 6.99902s-15 17 -15 29zM205.999 782
c0 13.333 3.33203 24.333 9.99902 33s16.334 13 29.001 13c10.667 0 20.667 -3.66699 30 -11s14 -16.666 14 -27.999s-3 -21 -9 -29s-14.667 -12.667 -26 -14c-12 -2.66699 -23 -0.333984 -33 6.99902s-15 17 -15 29z" />
    <glyph glyph-name="ordfeminine" unicode="&#xaa;" horiz-adv-x="316" 
d="M13 335v59h286v-59h-286zM129 634c-20.667 0 -38.667 -7.33301 -54 -22s-23 -32.667 -23 -54s7.5 -39.5 22.5 -54.5s33.167 -22.5 54.5 -22.5s39.333 7.66699 54 23s22 34 22 56c0 20.667 -7.5 38.167 -22.5 52.5s-32.833 21.5 -53.5 21.5zM238 575l53.001 -126.999h-45
l-23 51c-10 -16.667 -23.333 -29.834 -40 -39.501s-34.667 -14.5 -54 -14.5c-32 0 -59 11 -81 33s-33 49 -33 81c0 30.667 11 56.667 33 78s49 32 81 32c27.333 0 51.166 -8.83301 71.499 -26.5s32.833 -40.167 37.5 -67.5z" />
    <glyph glyph-name="guillemotleft" unicode="&#xab;" horiz-adv-x="424" 
d="M106 318l109 -108l-42 -41l-149 150l149 149l41 -42zM281 318l109 -108l-42 -41l-149 150l149 149l41 -42z" />
    <glyph glyph-name="macron" unicode="&#xaf;" horiz-adv-x="276" 
d="M218 793v-47h-171v47h171z" />
    <glyph glyph-name="degree" unicode="&#xb0;" horiz-adv-x="244" 
d="M61 601c0 19.333 7 36 21 50s30.667 21 50 21s36 -7 50 -21s21 -30.667 21 -50c0 -20 -6.66699 -37.333 -20 -52s-30.333 -22 -51 -22c-19.333 0 -36 7.33301 -50 22s-21 32 -21 52zM132 641c-12 0 -21.667 -4 -29 -12s-11 -18 -11 -30s4 -21.667 12 -29s18 -11 30 -11
c10.667 0 19.667 4 27 12s11 18 11 30c0 11.333 -3.83301 20.833 -11.5 28.5s-17.167 11.5 -28.5 11.5z" />
    <glyph glyph-name="acute" unicode="&#xb4;" horiz-adv-x="290" 
d="M262 825v-47l-187 -32v47z" />
    <glyph glyph-name="paragraph" unicode="&#xb6;" horiz-adv-x="718" 
d="M449 466c0 43.333 -16.667 80.667 -50 112s-72.333 47 -117 47c-45.333 0 -84.333 -16.333 -117 -49s-49 -72 -49 -118s15.667 -85.333 47 -118s70 -49 116 -49c48.667 0 89.167 15.833 121.5 47.5s48.5 74.167 48.5 127.5zM444 272.001
c-20.667 -22.667 -37.666 -37.667 -50.999 -45c-30.667 -16 -76 -24 -136 -24c-65.333 0 -121.333 26.167 -168 78.5s-70 111.833 -70 178.5c0 9.33301 0.333008 16.333 1 21c6.66699 66 34.167 120.5 82.5 163.5s105.833 64.5 172.5 64.5c69.333 0 125.666 -20 168.999 -60
v58h223v-708h-81v645h-60l-1 -645h-81v273z" />
    <glyph glyph-name="periodcentered" unicode="&#xb7;" horiz-adv-x="164" 
d="M24 322c0 17.333 4.33301 31.833 13 43.5s21.667 17.5 39 17.5c15.333 0 29 -4.83301 41 -14.5s18 -22.167 18 -37.5s-4.16699 -28.5 -12.5 -39.5s-19.833 -17.5 -34.5 -19.5c-16.667 -2.66699 -31.5 1 -44.5 11s-19.5 23 -19.5 39z" />
    <glyph glyph-name="periodcentered" unicode="&#x2219;" horiz-adv-x="164" 
d="M24 322c0 17.333 4.33301 31.833 13 43.5s21.667 17.5 39 17.5c15.333 0 29 -4.83301 41 -14.5s18 -22.167 18 -37.5s-4.16699 -28.5 -12.5 -39.5s-19.833 -17.5 -34.5 -19.5c-16.667 -2.66699 -31.5 1 -44.5 11s-19.5 23 -19.5 39z" />
    <glyph glyph-name="cedilla" unicode="&#xb8;" horiz-adv-x="614" 
d="M357 -179c0 -29.333 -10.332 -54.9971 -30.999 -76.9971s-46 -33 -76 -33s-55.333 11 -76 33l31 35c12 -14 26 -21 42 -21c17.333 0 32.333 5.66699 45 17s19 25.666 19 42.999s-5.83301 32.166 -17.5 44.499s-26.167 18.5 -43.5 18.5c-4 0 -8.5 -0.5 -13.5 -1.5
s-10.167 -2.83301 -15.5 -5.5l-19 42c9.33301 6 19 9.66699 29 11v12.5v14.5c0 13.333 0.166992 26.5 0.5 39.5s1.16602 19.5 2.49902 19.5l39 1c1.33301 0 2 -9.33301 2 -28v-44c0 -10.667 0.333008 -16.334 1 -17.001c24 -6 43.5 -18.5 58.5 -37.5
s22.5 -41.167 22.5 -66.5z" />
    <glyph glyph-name="ordmasculine" unicode="&#xba;" horiz-adv-x="264" 
d="M13 335v59h234v-59h-234zM20 563c0 31.333 11 57.333 33 78s49 31 81 31c30.667 0 56.667 -11 78 -33s32 -48.667 32 -80c0 -30.667 -10.667 -56.667 -32 -78s-47.333 -32 -78 -32c-32 0 -59 11 -81 33s-33 49 -33 81zM134 638c-20.667 0 -38.667 -7.33398 -54 -22.001
s-23 -32.667 -23 -54s7.33301 -39.666 22 -54.999s33 -23 55 -23c21.333 0 39.333 7.66699 54 23s22 34.333 22 57c0 20.667 -7.5 38.167 -22.5 52.5s-32.833 21.5 -53.5 21.5z" />
    <glyph glyph-name="guillemotright" unicode="&#xbb;" horiz-adv-x="424" 
d="M389 317l-149 -150l-42 41l109 108l-108 108l41 42zM214 317l-149 -150l-42 41l109 108l-108 108l41 42z" />
    <glyph glyph-name="questiondown" unicode="&#xbf;" horiz-adv-x="365" 
d="M275 653c0 -15.333 -5 -28.666 -15 -39.999s-22.667 -17 -38 -17c-16 0 -29.5 5.16699 -40.5 15.5s-16.5 23.166 -16.5 38.499s4.83301 28.5 14.5 39.5s22.167 16.5 37.5 16.5c16 0 29.667 -5 41 -15s17 -22.667 17 -38zM192 76c4 -0.666992 9.66602 -1 16.999 -1
c36.667 0 64.667 16.333 84 49l61 -40c-19.333 -30 -41.333 -52.167 -66 -66.5s-54.667 -21.5 -90 -21.5c-47.333 0 -87.833 17.833 -121.5 53.5s-50.5 77.834 -50.5 126.501c0 77.333 37.5 131 112.5 161s112.5 56 112.5 78c0 2.66699 -0.666992 8 -2 16
c-3.33301 15.333 -13.166 27 -29.499 35s-33.833 11.333 -52.5 10l-15 55c12.667 9.33301 29.667 14 51 14c30 0 56 -9.33301 78 -28c26 -22.667 39 -54 39 -94c0 -58 -49.333 -109 -148 -153c-46.667 -20.667 -70 -49.334 -70 -86.001c0 -8.66699 1 -18 3 -28
c8.66699 -48 37.667 -74.667 87 -80z" />
    <glyph glyph-name="Agrave" unicode="&#xc0;" 
d="M135 192l0.000976562 -192.999h-88v478c0 66.667 22 123 66 169s98.333 69 163 69c63.333 0 117.666 -23.333 162.999 -70s68 -102.334 68 -167.001v-479h-87v176c0.666992 12.667 1 22 1 28c0 8 -0.666992 15 -2 21s-4.5 11 -9.5 15s-12.833 6 -23.5 6
c-8.66699 -0.666992 -15.334 -1 -20.001 -1h-186c-9.33301 0 -15.666 -0.333008 -18.999 -1c-5.33301 -1.33301 -11 -4.5 -17 -9.5s-9 -14.5 -9 -28.5v-13zM416.001 386.001v97.001c0 41.333 -13 76.166 -39 104.499s-60.333 42.5 -103 42.5c-40.667 0 -73.5 -16 -98.5 -48
s-37.5 -69.667 -37.5 -113v-89c-0.666992 -8.66699 -1 -15 -1 -19c0 -9.33301 2.33301 -16.833 7 -22.5s10.667 -9.33398 18 -11.001s16.333 -2.5 27 -2.5l169 1h14c10 0 16.333 0.333008 19 1c6 1.33301 11.333 4.66602 16 9.99902c2.66699 2.66699 5 6.33398 7 11.001
s3 10.667 3 18c-0.666992 8.66699 -1 15.334 -1 20.001zM371.001 746.002l-187 32v47l187 -32v-47z" />
    <glyph glyph-name="Aacute" unicode="&#xc1;" 
d="M135 192l0.000976562 -192.999h-88v478c0 66.667 22 123 66 169s98.333 69 163 69c63.333 0 117.666 -23.333 162.999 -70s68 -102.334 68 -167.001v-479h-87v176c0.666992 12.667 1 22 1 28c0 8 -0.666992 15 -2 21s-4.5 11 -9.5 15s-12.833 6 -23.5 6
c-8.66699 -0.666992 -15.334 -1 -20.001 -1h-186c-9.33301 0 -15.666 -0.333008 -18.999 -1c-5.33301 -1.33301 -11 -4.5 -17 -9.5s-9 -14.5 -9 -28.5v-13zM416.001 386.001v97.001c0 41.333 -13 76.166 -39 104.499s-60.333 42.5 -103 42.5c-40.667 0 -73.5 -16 -98.5 -48
s-37.5 -69.667 -37.5 -113v-89c-0.666992 -8.66699 -1 -15 -1 -19c0 -9.33301 2.33301 -16.833 7 -22.5s10.667 -9.33398 18 -11.001s16.333 -2.5 27 -2.5l169 1h14c10 0 16.333 0.333008 19 1c6 1.33301 11.333 4.66602 16 9.99902c2.66699 2.66699 5 6.33398 7 11.001
s3 10.667 3 18c-0.666992 8.66699 -1 15.334 -1 20.001zM378.001 825.002v-47l-187 -32v47z" />
    <glyph glyph-name="Acircumflex" unicode="&#xc2;" 
d="M135 192l0.000976562 -192.999h-88v478c0 66.667 22 123 66 169s98.333 69 163 69c63.333 0 117.666 -23.333 162.999 -70s68 -102.334 68 -167.001v-479h-87v176c0.666992 12.667 1 22 1 28c0 8 -0.666992 15 -2 21s-4.5 11 -9.5 15s-12.833 6 -23.5 6
c-8.66699 -0.666992 -15.334 -1 -20.001 -1h-186c-9.33301 0 -15.666 -0.333008 -18.999 -1c-5.33301 -1.33301 -11 -4.5 -17 -9.5s-9 -14.5 -9 -28.5v-13zM416.001 386.001v97.001c0 41.333 -13 76.166 -39 104.499s-60.333 42.5 -103 42.5c-40.667 0 -73.5 -16 -98.5 -48
s-37.5 -69.667 -37.5 -113v-89c-0.666992 -8.66699 -1 -15 -1 -19c0 -9.33301 2.33301 -16.833 7 -22.5s10.667 -9.33398 18 -11.001s16.333 -2.5 27 -2.5l169 1h14c10 0 16.333 0.333008 19 1c6 1.33301 11.333 4.66602 16 9.99902c2.66699 2.66699 5 6.33398 7 11.001
s3 10.667 3 18c-0.666992 8.66699 -1 15.334 -1 20.001zM368.001 749.002l-92 31l-96 -31v47l96 32l92 -32v-47z" />
    <glyph glyph-name="Atilde" unicode="&#xc3;" 
d="M135 192l0.000976562 -192.999h-88v478c0 66.667 22 123 66 169s98.333 69 163 69c63.333 0 117.666 -23.333 162.999 -70s68 -102.334 68 -167.001v-479h-87v176c0.666992 12.667 1 22 1 28c0 8 -0.666992 15 -2 21s-4.5 11 -9.5 15s-12.833 6 -23.5 6
c-8.66699 -0.666992 -15.334 -1 -20.001 -1h-186c-9.33301 0 -15.666 -0.333008 -18.999 -1c-5.33301 -1.33301 -11 -4.5 -17 -9.5s-9 -14.5 -9 -28.5v-13zM416.001 386.001v97.001c0 41.333 -13 76.166 -39 104.499s-60.333 42.5 -103 42.5c-40.667 0 -73.5 -16 -98.5 -48
s-37.5 -69.667 -37.5 -113v-89c-0.666992 -8.66699 -1 -15 -1 -19c0 -9.33301 2.33301 -16.833 7 -22.5s10.667 -9.33398 18 -11.001s16.333 -2.5 27 -2.5l169 1h14c10 0 16.333 0.333008 19 1c6 1.33301 11.333 4.66602 16 9.99902c2.66699 2.66699 5 6.33398 7 11.001
s3 10.667 3 18c-0.666992 8.66699 -1 15.334 -1 20.001zM241.001 775.002c-10.667 0 -24.3301 -5 -40.9971 -15c-5.33301 -3.33301 -13 -8.66602 -23 -15.999v47c9.33301 7.33301 16.666 12.666 21.999 15.999c16.667 10.667 30.667 16 42 16
c7.33301 0 16.666 -3.16699 27.999 -9.5l35 -19.5c10.667 0 24 5 40 15c5.33301 3.33301 12.666 8.66602 21.999 15.999v-47c-8.66699 -7.33301 -15.667 -12.666 -21 -15.999c-16 -10.667 -29.667 -16 -41 -16c-8 0 -22 6.33301 -42 19c-10.667 6.66699 -17.667 10 -21 10z
" />
    <glyph glyph-name="Adieresis" unicode="&#xc4;" 
d="M135 192l0.000976562 -192.999h-88v478c0 66.667 22 123 66 169s98.333 69 163 69c63.333 0 117.666 -23.333 162.999 -70s68 -102.334 68 -167.001v-479h-87v176c0.666992 12.667 1 22 1 28c0 8 -0.666992 15 -2 21s-4.5 11 -9.5 15s-12.833 6 -23.5 6
c-8.66699 -0.666992 -15.334 -1 -20.001 -1h-186c-9.33301 0 -15.666 -0.333008 -18.999 -1c-5.33301 -1.33301 -11 -4.5 -17 -9.5s-9 -14.5 -9 -28.5v-13zM416.001 385.001v98.001c0 41.333 -13 76.166 -39 104.499s-60.333 42.5 -103 42.5c-40.667 0 -73.5 -16 -98.5 -48
s-37.5 -69.667 -37.5 -113v-89c-0.666992 -8.66699 -1 -15 -1 -19c0 -9.33301 2.33301 -16.833 7 -22.5s10.667 -9.33398 18 -11.001s16.333 -2.5 27 -2.5h169h14c10 0 16.333 0.333008 19 1c6 1.33301 11.333 4.66602 16 9.99902c2.66699 2.66699 5 6.33398 7 11.001
s3 10.667 3 18c-0.666992 8.66699 -1 15.334 -1 20.001zM156.001 782.002c0 13.333 3.33203 24.333 9.99902 33s16.334 13 29.001 13c10.667 0 20.667 -3.66699 30 -11s14 -16.666 14 -27.999s-3 -21 -9 -29s-14.667 -12.667 -26 -14
c-12 -2.66699 -23 -0.333984 -33 6.99902s-15 17 -15 29zM306 782.002c0 13.333 3.33203 24.333 9.99902 33s16.334 13 29.001 13c10.667 0 20.667 -3.66699 30 -11s14 -16.666 14 -27.999s-3 -21 -9 -29s-14.667 -12.667 -26 -14c-12 -2.66699 -23 -0.333984 -33 6.99902
s-15 17 -15 29z" />
    <glyph glyph-name="Aring" unicode="&#xc5;" 
d="M135 192l0.000976562 -192.999h-88v478c0 66.667 22 123 66 169s98.333 69 163 69c63.333 0 117.666 -23.333 162.999 -70s68 -102.334 68 -167.001v-479h-87v176c0.666992 12.667 1 22 1 28c0 8 -0.666992 15 -2 21s-4.5 11 -9.5 15s-12.833 6 -23.5 6
c-8.66699 -0.666992 -15.334 -1 -20.001 -1h-186c-9.33301 0 -15.666 -0.333008 -18.999 -1c-5.33301 -1.33301 -11 -4.5 -17 -9.5s-9 -14.5 -9 -28.5v-13zM416.001 385.001v98.001c0 41.333 -13 76.166 -39 104.499s-60.333 42.5 -103 42.5c-40.667 0 -73.5 -16 -98.5 -48
s-37.5 -69.667 -37.5 -113v-89c-0.666992 -8.66699 -1 -15 -1 -19c0 -9.33301 2.33301 -16.833 7 -22.5s10.667 -9.33398 18 -11.001s16.333 -2.5 27 -2.5h169h14c10 0 16.333 0.333008 19 1c6 1.33301 11.333 4.66602 16 9.99902c2.66699 2.66699 5 6.33398 7 11.001
s3 10.667 3 18c-0.666992 8.66699 -1 15.334 -1 20.001zM205.001 819.002c0 19.333 7 36 21 50s30.667 21 50 21s36 -7 50 -21s21 -30.667 21 -50c0 -20 -6.66699 -37.333 -20 -52s-30.333 -22 -51 -22c-19.333 0 -36 7.33301 -50 22s-21 32 -21 52zM276.001 859.002
c-12 0 -21.667 -4 -29 -12s-11 -18 -11 -30s4 -21.667 12 -29s18 -11 30 -11c10.667 0 19.667 4 27 12s11 18 11 30c0 11.333 -3.83301 20.833 -11.5 28.5s-17.167 11.5 -28.5 11.5z" />
    <glyph glyph-name="AE" unicode="&#xc6;" horiz-adv-x="786" 
d="M416 385v98.001c0 41.333 -13 76.166 -39 104.499s-60.333 42.5 -103 42.5c-40.667 0 -73.5 -16 -98.5 -48s-37.5 -69.667 -37.5 -113v-89c-0.666992 -8.66699 -1 -15 -1 -19c0 -9.33301 2.33301 -16.833 7 -22.5s10.667 -9.33398 18 -11.001s16.333 -2.5 27 -2.5h169h14
c10 0 16.333 0.333008 19 1c6 1.33301 11.333 4.66602 16 9.99902c2.66699 2.66699 5 6.33398 7 11.001s3 10.667 3 18c-0.666992 8.66699 -1 15.334 -1 20.001zM419 221.001c-1.33301 7.33301 -4.50098 13.1689 -9.50098 17.502s-12.833 6.5 -23.5 6.5
c-8.66699 -0.666992 -15.334 -1 -20.001 -1h-186c-9.33301 0 -15.666 -0.333008 -18.999 -1c-5.33301 -1.33301 -11 -4.5 -17 -9.5s-9 -14.5 -9 -28.5v-13v-193h-88v478c0 66.667 22 123 66 169s98.333 69 163 69c54 0 101.667 -17 143 -51v45h327v-82h-193h-12
c-15.333 0 -24.666 -2 -27.999 -6s-5 -10 -5 -18v-12l-1 -133c0 -8 2.33301 -14.667 7 -20s12.667 -8 24 -8h10h185v-86h-189c-8 0 -13.667 -0.333008 -17 -1c-4.66699 -0.666992 -9.16699 -3.33398 -13.5 -8.00098s-6.5 -11.334 -6.5 -20.001l1 -185l2 -33
c1.33301 -2 4.5 -3.66699 9.5 -5s13.167 -2 24.5 -2h210v-92h-335v223z" />
    <glyph glyph-name="Ccedilla" unicode="&#xc7;" horiz-adv-x="540" 
d="M359 -7c-92.667 0 -171.666 35.6699 -236.999 107.003s-98 155.666 -98 252.999s35.167 180.5 105.5 249.5s154.5 103.5 252.5 103.5c42.667 0 83 -6 121 -18v-89c-38 18 -78.333 27 -121 27c-75.333 0 -139.666 -27 -192.999 -81s-80 -119 -80 -195
c0 -75.333 26.667 -140.333 80 -195s117.666 -82 192.999 -82c22.667 0 44 2.5 64 7.5s38.667 11.833 56 20.5v-87c-18.667 -7.33301 -35.834 -12.833 -51.501 -16.5s-31.5 -5.5 -47.5 -5.5v-31c0 -8.66699 0.333008 -16.667 1 -24c24 -6 43.5 -18.5 58.5 -37.5
s22.5 -41.167 22.5 -66.5c0 -29.333 -10.333 -55 -31 -77s-46 -33 -76 -33s-55.333 11 -76 33l31 35c12 -14 26 -21 42 -21c17.333 0 32.333 5.66699 45 17s19 25.666 19 42.999s-5.83301 32.166 -17.5 44.499s-26.167 18.5 -43.5 18.5c-4 0 -8.5 -0.5 -13.5 -1.5
s-10.167 -2.83301 -15.5 -5.5l-19 42c9.33301 6 19 9.66699 29 11v54z" />
    <glyph glyph-name="Egrave" unicode="&#xc8;" horiz-adv-x="407" 
d="M47 -2l-0.000976562 711.001h327v-82h-193h-12c-15.333 0 -24.666 -2 -27.999 -6s-5 -10 -5 -18v-12l-1 -121c0 -15.333 2.33301 -25.833 7 -31.5s12.667 -8.5 24 -8.5h10h185v-86h-189c-8 0 -13.667 -0.333008 -17 -1
c-4.66699 -0.666992 -9.16699 -3.33398 -13.5 -8.00098s-6.5 -12 -6.5 -22v-9l1 -174l2 -33c1.33301 -2 4.5 -3.66699 9.5 -5s13.167 -2 24.5 -2h210v-92h-335zM320.999 746.001l-187 32v47l187 -32v-47z" />
    <glyph glyph-name="Eacute" unicode="&#xc9;" horiz-adv-x="407" 
d="M47 -2l-0.000976562 711.001h327v-82h-193h-12c-15.333 0 -24.666 -2 -27.999 -6s-5 -10 -5 -18v-12l-1 -121c0 -15.333 2.33301 -25.833 7 -31.5s12.667 -8.5 24 -8.5h10h185v-86h-189c-8 0 -13.667 -0.333008 -17 -1
c-4.66699 -0.666992 -9.16699 -3.33398 -13.5 -8.00098s-6.5 -12 -6.5 -22v-9l1 -174l2 -33c1.33301 -2 4.5 -3.66699 9.5 -5s13.167 -2 24.5 -2h210v-92h-335zM321.999 825.001v-47l-187 -32v47z" />
    <glyph glyph-name="Ecircumflex" unicode="&#xca;" horiz-adv-x="407" 
d="M47 -2l-0.000976562 711.001h327v-82h-193h-12c-15.333 0 -24.666 -2 -27.999 -6s-5 -10 -5 -18v-12l-1 -121c0 -15.333 2.33301 -25.833 7 -31.5s12.667 -8.5 24 -8.5h10h185v-86h-189c-8 0 -13.667 -0.333008 -17 -1
c-4.66699 -0.666992 -9.16699 -3.33398 -13.5 -8.00098s-6.5 -12 -6.5 -22v-9l1 -174l2 -33c1.33301 -2 4.5 -3.66699 9.5 -5s13.167 -2 24.5 -2h210v-92h-335zM311.999 746.001l-92 31l-96 -31v47l96 32l92 -32v-47z" />
    <glyph glyph-name="Edieresis" unicode="&#xcb;" horiz-adv-x="407" 
d="M47 -2l-0.000976562 711.001h327v-82h-193h-12c-15.333 0 -24.666 -2 -27.999 -6s-5 -10 -5 -18v-12l-1 -121c0 -15.333 2.33301 -25.833 7 -31.5s12.667 -8.5 24 -8.5h10h185v-86h-189c-8 0 -13.667 -0.333008 -17 -1
c-4.66699 -0.666992 -9.16699 -3.33398 -13.5 -8.00098s-6.5 -12 -6.5 -22v-9l1 -174l2 -33c1.33301 -2 4.5 -3.66699 9.5 -5s13.167 -2 24.5 -2h210v-92h-335zM99.999 782.001c0 13.333 3.33203 24.333 9.99902 33s16.334 13 29.001 13c10.667 0 20.667 -3.66699 30 -11
s14 -16.666 14 -27.999s-3 -21 -9 -29s-14.667 -12.667 -26 -14c-12 -2.66699 -23 -0.333984 -33 6.99902s-15 17 -15 29zM249.998 782.001c0 13.333 3.33203 24.333 9.99902 33s16.334 13 29.001 13c10.667 0 20.667 -3.66699 30 -11s14 -16.666 14 -27.999s-3 -21 -9 -29
s-14.667 -12.667 -26 -14c-12 -2.66699 -23 -0.333984 -33 6.99902s-15 17 -15 29z" />
    <glyph glyph-name="Igrave" unicode="&#xcc;" horiz-adv-x="198" 
d="M48 -1v716h97v-716h-97zM193 748l-187 32v47l187 -32v-47z" />
    <glyph glyph-name="Iacute" unicode="&#xcd;" horiz-adv-x="198" 
d="M48 -1v716h97v-716h-97zM192 825v-47l-187 -32v47z" />
    <glyph glyph-name="Icircumflex" unicode="&#xce;" horiz-adv-x="198" 
d="M48 -1v716h97v-716h-97zM194 746l-92 31l-96 -31v47l96 32l92 -32v-47z" />
    <glyph glyph-name="Idieresis" unicode="&#xcf;" horiz-adv-x="198" 
d="M48 -1v716h97v-716h-97zM0 782c0 13.333 3.33203 24.333 9.99902 33s16.334 13 29.001 13c10.667 0 20.667 -3.66699 30 -11s14 -16.666 14 -27.999s-3 -21 -9 -29s-14.667 -12.667 -26 -14c-12 -2.66699 -23 -0.333984 -33 6.99902s-15 17 -15 29zM111.999 782
c0 13.333 3.33203 24.333 9.99902 33s16.334 13 29.001 13c10.667 0 20.667 -3.66699 30 -11s14 -16.666 14 -27.999s-3 -21 -9 -29s-14.667 -12.667 -26 -14c-12 -2.66699 -23 -0.333984 -33 6.99902s-15 17 -15 29z" />
    <glyph glyph-name="Eth" unicode="&#xd0;" horiz-adv-x="569" 
d="M142 386l83 -0.000976562v-59h-83v-210c0 -22.667 15.667 -34 47 -34c51.333 0 103.333 24 156 72c62 56.667 93 126.334 93 209.001c0 74.667 -32.333 139 -97 193c-55.333 46.667 -108.333 70 -159 70c-26.667 0 -40 -9.33301 -40 -28v-213zM47 326.999h-51.999v59h52
v328h16h15h13h31.5c8.33301 0 16.166 0.333008 23.499 1c104 0 193 -32.333 267 -97c77.333 -68 116 -153 116 -255c0 -124 -44 -219.333 -132 -286c-67.333 -51.333 -142 -77 -224 -77l-126 -1v328z" />
    <glyph glyph-name="Ntilde" unicode="&#xd1;" horiz-adv-x="594" 
d="M133 -2l-79.999 0.000976562v711l359 -415c10 -12 18.667 -21 26 -27c10.667 -8.66699 18 -11.667 22 -9c3.33301 2 5.66602 9.16699 6.99902 21.5s2 25.166 2 38.499v25v366h85v-716l-366 424c-10 12.667 -15.667 19.667 -17 21c-8 7.33301 -16 9.66602 -24 6.99902
c-10 -3.33301 -15 -12.666 -15 -27.999c0.666992 -10.667 1 -18.667 1 -24v-395zM267.001 777.001c-10.667 0 -24.3301 -5 -40.9971 -15c-5.33301 -3.33301 -13 -8.66602 -23 -15.999v47c9.33301 7.33301 16.666 12.666 21.999 15.999c16.667 10.667 30.667 16 42 16
c7.33301 0 16.666 -3.16699 27.999 -9.5l35 -19.5c10.667 0 24 5 40 15c5.33301 3.33301 12.666 8.66602 21.999 15.999v-47c-8.66699 -7.33301 -15.667 -12.666 -21 -15.999c-16 -10.667 -29.667 -16 -41 -16c-8 0 -22 6.33301 -42 19c-10.667 6.66699 -17.667 10 -21 10z
" />
    <glyph glyph-name="Ograve" unicode="&#xd2;" horiz-adv-x="768" 
d="M33 349c0 98 35.168 181.499 105.501 250.499s155.166 103.5 254.499 103.5c97.333 0 180.333 -35.333 249 -106s103 -155 103 -253c0 -97.333 -35 -180.666 -105 -249.999s-154 -104 -252 -104c-97.333 0 -180.833 35.167 -250.5 105.5s-104.5 154.833 -104.5 253.5z
M393.001 620.999c-76 0 -141 -26.667 -195 -80s-81 -118.333 -81 -195c0 -76 27 -140.667 81 -194s119 -80 195 -80s140.667 26.667 194 80s80 118 80 194s-26.833 140.833 -80.5 194.5s-118.167 80.5 -193.5 80.5zM473.001 745.999l-187 32v47l187 -32v-47z" />
    <glyph glyph-name="Oacute" unicode="&#xd3;" horiz-adv-x="768" 
d="M33 349c0 98 35.168 181.499 105.501 250.499s155.166 103.5 254.499 103.5c97.333 0 180.333 -35.333 249 -106s103 -155 103 -253c0 -97.333 -35 -180.666 -105 -249.999s-154 -104 -252 -104c-97.333 0 -180.833 35.167 -250.5 105.5s-104.5 154.833 -104.5 253.5z
M393.001 620.999c-76 0 -141 -26.667 -195 -80s-81 -118.333 -81 -195c0 -76 27 -140.667 81 -194s119 -80 195 -80s140.667 26.667 194 80s80 118 80 194s-26.833 140.833 -80.5 194.5s-118.167 80.5 -193.5 80.5zM484.001 824.999v-47l-187 -32v47z" />
    <glyph glyph-name="Ocircumflex" unicode="&#xd4;" horiz-adv-x="768" 
d="M33 349c0 98 35.168 181.499 105.501 250.499s155.166 103.5 254.499 103.5c97.333 0 180.333 -35.333 249 -106s103 -155 103 -253c0 -97.333 -35 -180.666 -105 -249.999s-154 -104 -252 -104c-97.333 0 -180.833 35.167 -250.5 105.5s-104.5 154.833 -104.5 253.5z
M393.001 620.999c-76 0 -141 -26.667 -195 -80s-81 -118.333 -81 -195c0 -76 27 -140.667 81 -194s119 -80 195 -80s140.667 26.667 194 80s80 118 80 194s-26.833 140.833 -80.5 194.5s-118.167 80.5 -193.5 80.5zM488.001 745.999l-92 31l-96 -31v47l96 32l92 -32v-47z
" />
    <glyph glyph-name="Otilde" unicode="&#xd5;" horiz-adv-x="768" 
d="M33 349c0 98 35.168 181.499 105.501 250.499s155.166 103.5 254.499 103.5c97.333 0 180.333 -35.333 249 -106s103 -155 103 -253c0 -97.333 -35 -180.666 -105 -249.999s-154 -104 -252 -104c-97.333 0 -180.833 35.167 -250.5 105.5s-104.5 154.833 -104.5 253.5z
M393.001 620.999c-76 0 -141 -26.667 -195 -80s-81 -118.333 -81 -195c0 -76 27 -140.667 81 -194s119 -80 195 -80s140.667 26.667 194 80s80 118 80 194s-26.833 140.833 -80.5 194.5s-118.167 80.5 -193.5 80.5zM361.001 774.999c-10.667 0 -24.3301 -5 -40.9971 -15
c-5.33301 -3.33301 -13 -8.66602 -23 -15.999v47c9.33301 7.33301 16.666 12.666 21.999 15.999c16.667 10.667 30.667 16 42 16c7.33301 0 16.666 -3.16699 27.999 -9.5l35 -19.5c10.667 0 24 5 40 15c5.33301 3.33301 12.666 8.66602 21.999 15.999v-47
c-8.66699 -7.33301 -15.667 -12.666 -21 -15.999c-16 -10.667 -29.667 -16 -41 -16c-8 0 -22 6.33301 -42 19c-10.667 6.66699 -17.667 10 -21 10z" />
    <glyph glyph-name="Odieresis" unicode="&#xd6;" horiz-adv-x="768" 
d="M27 349c0 98 35.168 181.499 105.501 250.499s155.166 103.5 254.499 103.5c97.333 0 180.333 -35.333 249 -106s103 -155 103 -253c0 -97.333 -35 -180.666 -105 -249.999s-154 -104 -252 -104c-97.333 0 -180.833 35.167 -250.5 105.5s-104.5 154.833 -104.5 253.5z
M387.001 620.999c-76 0 -141 -26.667 -195 -80s-81 -118.333 -81 -195c0 -76 27 -140.667 81 -194s119 -80 195 -80s140.667 26.667 194 80s80 118 80 194s-26.833 140.833 -80.5 194.5s-118.167 80.5 -193.5 80.5zM269.001 789.999c0 13.333 3.33203 24.333 9.99902 33
s16.334 13 29.001 13c10.667 0 20.667 -3.66699 30 -11s14 -16.666 14 -27.999s-3 -21 -9 -29s-14.667 -12.667 -26 -14c-12 -2.66699 -23 -0.333984 -33 6.99902s-15 17 -15 29zM419 789.999c0 13.333 3.33203 24.333 9.99902 33s16.334 13 29.001 13
c10.667 0 20.667 -3.66699 30 -11s14 -16.666 14 -27.999s-3 -21 -9 -29s-14.667 -12.667 -26 -14c-12 -2.66699 -23 -0.333984 -33 6.99902s-15 17 -15 29z" />
    <glyph glyph-name=".null" unicode="&#xd7;" horiz-adv-x="0" 
 />
    <glyph glyph-name="Oslash" unicode="&#xd8;" horiz-adv-x="768" 
d="M393 621c-76 0 -141 -26.667 -195 -80s-81 -118.333 -81 -195c0 -76 27 -140.667 81 -194s119 -80 195 -80s140.667 26.667 194 80s80 118 80 194s-26.833 140.833 -80.5 194.5s-118.167 80.5 -193.5 80.5zM149 84c-36.667 34 -65.166 73.665 -85.499 118.998
s-30.5 94 -30.5 146c0 98 35.167 181.5 105.5 250.5s155.166 103.5 254.499 103.5c52 0 101.333 -11.333 148 -34l31 46h73l-52 -77c47.333 -32.667 84.5 -74.667 111.5 -126s40.5 -107.333 40.5 -168c0 -97.333 -35 -180.666 -105 -249.999s-154 -104 -252 -104
c-34 0 -67.333 4.83301 -100 14.5s-63 23.834 -91 42.501l-32 -48h-73z" />
    <glyph glyph-name="Ugrave" unicode="&#xd9;" horiz-adv-x="550" 
d="M37 272l-0.00195312 444h89v-444c0 -54 11 -97.667 33 -131c26.667 -40 66.667 -60 120 -60c57.333 0 98 20.333 122 61c18 30.667 27 74.667 27 132v442h89v-442c0 -84 -18 -150 -54 -198c-41.333 -55.333 -103.666 -83 -186.999 -83c-75.333 0 -134.666 27 -177.999 81
c-40.667 50.667 -61 116.667 -61 198zM366.998 746l-187 32v47l187 -32v-47z" />
    <glyph glyph-name="Uacute" unicode="&#xda;" horiz-adv-x="550" 
d="M37 272l-0.00195312 444h89v-444c0 -54 11 -97.667 33 -131c26.667 -40 66.667 -60 120 -60c57.333 0 98 20.333 122 61c18 30.667 27 74.667 27 132v442h89v-442c0 -84 -18 -150 -54 -198c-41.333 -55.333 -103.666 -83 -186.999 -83c-75.333 0 -134.666 27 -177.999 81
c-40.667 50.667 -61 116.667 -61 198zM377.998 825v-47l-187 -32v47z" />
    <glyph glyph-name="Ucircumflex" unicode="&#xdb;" horiz-adv-x="550" 
d="M37 272l-0.00195312 444h89v-444c0 -54 11 -97.667 33 -131c26.667 -40 66.667 -60 120 -60c57.333 0 98 20.333 122 61c18 30.667 27 74.667 27 132v442h89v-442c0 -84 -18 -150 -54 -198c-41.333 -55.333 -103.666 -83 -186.999 -83c-75.333 0 -134.666 27 -177.999 81
c-40.667 50.667 -61 116.667 -61 198zM363.998 746l-92 31l-96 -31v47l96 32l92 -32v-47z" />
    <glyph glyph-name="Udieresis" unicode="&#xdc;" horiz-adv-x="550" 
d="M37 272l-0.00195312 444h89v-444c0 -54 11 -97.667 33 -131c26.667 -40 66.667 -60 120 -60c57.333 0 98 20.333 122 61c18 30.667 27 74.667 27 132v442h89v-442c0 -84 -18 -150 -54 -198c-41.333 -55.333 -103.666 -83 -186.999 -83c-75.333 0 -134.666 27 -177.999 81
c-40.667 50.667 -61 116.667 -61 198zM157.998 782c0 13.333 3.33203 24.333 9.99902 33s16.334 13 29.001 13c10.667 0 20.667 -3.66699 30 -11s14 -16.666 14 -27.999s-3 -21 -9 -29s-14.667 -12.667 -26 -14c-12 -2.66699 -23 -0.333984 -33 6.99902s-15 17 -15 29z
M307.997 782c0 13.333 3.33203 24.333 9.99902 33s16.334 13 29.001 13c10.667 0 20.667 -3.66699 30 -11s14 -16.666 14 -27.999s-3 -21 -9 -29s-14.667 -12.667 -26 -14c-12 -2.66699 -23 -0.333984 -33 6.99902s-15 17 -15 29z" />
    <glyph glyph-name="Yacute" unicode="&#xdd;" horiz-adv-x="556" 
d="M219 260c0 22.667 -12 61.333 -36 116c-18.667 42.667 -46 98.334 -82 167.001l-89 168h105c57.333 -123.333 97 -204.666 119 -243.999c17.333 -31.333 30.333 -47 39 -47c7.33301 0 18 11 32 33c11.333 18 29.333 51 54 99c52.667 102.667 80 155.667 82 159h97
c-8.66699 -17.333 -38 -70.333 -88 -159c-38 -67.333 -68 -124.333 -90 -171c-28 -58.667 -42 -99.334 -42 -122.001v-22v-17v-37v-33v-29v-24v-20v-16v-13v-32.5c0 -7.66699 -0.333008 -12.834 -1 -15.501h-100v102.5v157.5zM378 824.999v-47l-187 -32v47z" />
    <glyph glyph-name="Thorn" unicode="&#xde;" horiz-adv-x="600" 
d="M480 374c0 46 -16.332 85.333 -48.999 118s-71.667 49 -117 49c-47.333 0 -86.333 -13 -117 -39c-34.667 -29.333 -52 -69.333 -52 -120c0 -62 17 -107.667 51 -137c29.333 -25.333 69.666 -38 120.999 -38c45.333 0 83.833 16.167 115.5 48.5s47.5 71.833 47.5 118.5z
M145.001 571c44 34.667 100.667 52 170 52c66 0 123.333 -21.333 172 -64s76.334 -97.334 83.001 -164.001c0.666992 -4 1 -8 1 -12v-11c0 -62.667 -20.667 -117.167 -62 -163.5s-94 -75.5 -158 -87.5c-22 -3.33301 -40 -5 -54 -5c-44.667 0 -83.334 10.667 -116.001 32
c-10.667 6.66699 -22.667 17.334 -36 32.001v-181h-97v716h97v-144z" />
    <glyph glyph-name="germandbls" unicode="&#xdf;" horiz-adv-x="491" 
d="M172 412l75.001 -0.000976562c30 0 54.667 11.333 74 34s29 50.667 29 84c0 29.333 -10.833 53.5 -32.5 72.5s-47.834 28.5 -78.501 28.5c-29.333 0 -54.5 -9.16699 -75.5 -27.5s-31.5 -42.166 -31.5 -71.499v-620h-85v583c0 73.333 18 129 54 167
c33.333 35.333 79 53 137 53c52.667 0 98.5 -17.833 137.5 -53.5s58.5 -78.167 58.5 -127.5c0 -31.333 -7.33301 -60.666 -22 -87.999l-47 -66c25.333 -12 47.833 -32.333 67.5 -61s29.5 -66 29.5 -112c0 -58.667 -18.833 -107.834 -56.5 -147.501
s-87.167 -59.5 -148.5 -59.5h-87l-1 87c64 0 109 4.66699 135 14c52 18.667 78 57.667 78 117c0 36.667 -13.5 65.5 -40.5 86.5s-60.167 31.5 -99.5 31.5h-70v76z" />
    <glyph glyph-name="agrave" unicode="&#xe0;" horiz-adv-x="561" 
d="M251 369c-42 0 -78.001 -14.666 -108.001 -43.999s-45 -65.333 -45 -108s14.833 -78.834 44.5 -108.501s65.834 -44.5 108.501 -44.5s78.667 15.333 108 46s44 67.667 44 111c0 41.333 -15 76.333 -45 105s-65.667 43 -107 43zM468.999 251.001l105.999 -253l-89 2
l-46 100c-19.333 -32 -46 -57.833 -80 -77.5s-70.333 -29.5 -109 -29.5c-62.667 0 -116.167 22.167 -160.5 66.5s-66.5 97.5 -66.5 159.5c0 61.333 22.167 113.5 66.5 156.5s97.833 64.5 160.5 64.5c55.333 0 103.333 -18 144 -54s65.334 -81 74.001 -135zM348.998 486.001
l-187 32v47l187 -32v-47z" />
    <glyph glyph-name="aacute" unicode="&#xe1;" 
d="M251 369c-42 0 -78.001 -14.666 -108.001 -43.999s-45 -65.333 -45 -108s14.833 -78.834 44.5 -108.501s65.834 -44.5 108.501 -44.5s78.667 15.333 108 46s44 67.667 44 111c0 41.333 -15 76.333 -45 105s-65.667 43 -107 43zM468.999 251.001l105.999 -253l-89 2
l-46 100c-19.333 -32 -46 -57.833 -80 -77.5s-70.333 -29.5 -109 -29.5c-62.667 0 -116.167 22.167 -160.5 66.5s-66.5 97.5 -66.5 159.5c0 61.333 22.167 113.5 66.5 156.5s97.833 64.5 160.5 64.5c55.333 0 103.333 -18 144 -54s65.334 -81 74.001 -135zM353.998 571.001
v-47l-187 -32v47z" />
    <glyph glyph-name="acircumflex" unicode="&#xe2;" horiz-adv-x="556" 
d="M251 369c-42 0 -78.001 -14.666 -108.001 -43.999s-45 -65.333 -45 -108s14.833 -78.834 44.5 -108.501s65.834 -44.5 108.501 -44.5s78.667 15.333 108 46s44 67.667 44 111c0 41.333 -15 76.333 -45 105s-65.667 43 -107 43zM468.999 251.001l105.999 -253l-89 2
l-46 100c-19.333 -32 -46 -57.833 -80 -77.5s-70.333 -29.5 -109 -29.5c-62.667 0 -116.167 22.167 -160.5 66.5s-66.5 97.5 -66.5 159.5c0 61.333 22.167 113.5 66.5 156.5s97.833 64.5 160.5 64.5c55.333 0 103.333 -18 144 -54s65.334 -81 74.001 -135zM341.998 492.001
l-92 31l-96 -31v47l96 32l92 -32v-47z" />
    <glyph glyph-name="atilde" unicode="&#xe3;" horiz-adv-x="559" 
d="M251 369c-42 0 -78.001 -14.666 -108.001 -43.999s-45 -65.333 -45 -108s14.833 -78.834 44.5 -108.501s65.834 -44.5 108.501 -44.5s78.667 15.333 108 46s44 67.667 44 111c0 41.333 -15 76.333 -45 105s-65.667 43 -107 43zM468.999 251.001l105.999 -253l-89 2
l-46 100c-19.333 -32 -46 -57.833 -80 -77.5s-70.333 -29.5 -109 -29.5c-62.667 0 -116.167 22.167 -160.5 66.5s-66.5 97.5 -66.5 159.5c0 61.333 22.167 113.5 66.5 156.5s97.833 64.5 160.5 64.5c55.333 0 103.333 -18 144 -54s65.334 -81 74.001 -135zM222.998 521.001
c-10.667 0 -24.3301 -5 -40.9971 -15c-5.33301 -3.33301 -13 -8.66602 -23 -15.999v47c9.33301 7.33301 16.666 12.666 21.999 15.999c16.667 10.667 30.667 16 42 16c7.33301 0 16.666 -3.16699 27.999 -9.5l35 -19.5c10.667 0 24 5 40 15
c5.33301 3.33301 12.666 8.66602 21.999 15.999v-47c-8.66699 -7.33301 -15.667 -12.666 -21 -15.999c-16 -10.667 -29.667 -16 -41 -16c-8 0 -22 6.33301 -42 19c-10.667 6.66699 -17.667 10 -21 10z" />
    <glyph glyph-name="adieresis" unicode="&#xe4;" horiz-adv-x="559" 
d="M251 369c-42 0 -78.001 -14.666 -108.001 -43.999s-45 -65.333 -45 -108s14.833 -78.834 44.5 -108.501s65.834 -44.5 108.501 -44.5s78.667 15.333 108 46s44 67.667 44 111c0 41.333 -15 76.333 -45 105s-65.667 43 -107 43zM468.999 251.001l105.999 -253l-89 2
l-46 100c-19.333 -32 -46 -57.833 -80 -77.5s-70.333 -29.5 -109 -29.5c-62.667 0 -116.167 22.167 -160.5 66.5s-66.5 97.5 -66.5 159.5c0 61.333 22.167 113.5 66.5 156.5s97.833 64.5 160.5 64.5c55.333 0 103.333 -18 144 -54s65.334 -81 74.001 -135zM133.998 528.001
c0 13.333 3.33203 24.333 9.99902 33s16.334 13 29.001 13c10.667 0 20.667 -3.66699 30 -11s14 -16.666 14 -27.999s-3 -21 -9 -29s-14.667 -12.667 -26 -14c-12 -2.66699 -23 -0.333984 -33 6.99902s-15 17 -15 29zM283.997 528.001c0 13.333 3.33203 24.333 9.99902 33
s16.334 13 29.001 13c10.667 0 20.667 -3.66699 30 -11s14 -16.666 14 -27.999s-3 -21 -9 -29s-14.667 -12.667 -26 -14c-12 -2.66699 -23 -0.333984 -33 6.99902s-15 17 -15 29z" />
    <glyph glyph-name="aring" unicode="&#xe5;" horiz-adv-x="561" 
d="M251 369c-42 0 -78.001 -14.666 -108.001 -43.999s-45 -65.333 -45 -108s14.833 -78.834 44.5 -108.501s65.834 -44.5 108.501 -44.5s78.667 15.333 108 46s44 67.667 44 111c0 41.333 -15 76.333 -45 105s-65.667 43 -107 43zM468.999 251.001l105.999 -253l-89 2
l-46 100c-19.333 -32 -46 -57.833 -80 -77.5s-70.333 -29.5 -109 -29.5c-62.667 0 -116.167 22.167 -160.5 66.5s-66.5 97.5 -66.5 159.5c0 61.333 22.167 113.5 66.5 156.5s97.833 64.5 160.5 64.5c55.333 0 103.333 -18 144 -54s65.334 -81 74.001 -135zM180.998 566.001
c0 19.333 7 36 21 50s30.667 21 50 21s36 -7 50 -21s21 -30.667 21 -50c0 -20 -6.66699 -37.333 -20 -52s-30.333 -22 -51 -22c-19.333 0 -36 7.33301 -50 22s-21 32 -21 52zM251.998 606.001c-12 0 -21.667 -4 -29 -12s-11 -18 -11 -30s4 -21.667 12 -29s18 -11 30 -11
c10.667 0 19.667 4 27 12s11 18 11 30c0 11.333 -3.83301 20.833 -11.5 28.5s-17.167 11.5 -28.5 11.5z" />
    <glyph glyph-name="ae" unicode="&#xe6;" horiz-adv-x="742" 
d="M189 253c-25.333 0 -47.333 -9.00098 -66 -27.001s-28 -40 -28 -66s9 -48 27 -66s40.333 -27 67 -27c25.333 0 47 9.33301 65 28s27 41.334 27 68.001c0 24 -9 45 -27 63s-39.667 27 -65 27zM644 271.999c-7.33301 29.333 -23.834 53.3311 -49.501 71.998
s-55.167 28 -88.5 28c-32.667 0 -64.167 -11.667 -94.5 -35s-44.166 -46.666 -41.499 -69.999c0.666992 -3.33301 3.66699 -5.66602 9 -6.99902s11.333 -2 18 -2h13h186h17c11.333 0 19.833 1 25.5 3s7.5 5.66699 5.5 11zM330.999 72.9971
c-15.333 -25.333 -35.333 -45.1699 -60 -59.5029s-52 -21.5 -82 -21.5c-47.333 0 -87.5 16.5 -120.5 49.5s-49.5 72.833 -49.5 119.5c0 46 16.5 85.167 49.5 117.5s73.167 48.5 120.5 48.5c25.333 0 49.333 -5.33301 72 -16c7.33301 -3.33301 16.333 -8.66602 27 -15.999
c0 24 -10.833 43.667 -32.5 59s-45.167 23 -70.5 23c-21.333 0 -40 -2.33301 -56 -7c-26.667 -8 -47.334 -21.667 -62.001 -41l-34 58c20.667 23.333 44.334 39.833 71.001 49.5s53.667 14.5 81 14.5c28.667 0 57 -7.66699 85 -23s49.333 -34.666 64 -57.999
c21.333 22.667 46.166 40.5 74.499 53.5s58.5 19.5 90.5 19.5c62.667 0 116.834 -22.5 162.501 -67.5s68.5 -98.5 68.5 -160.5c0 -11.333 -0.333008 -19.666 -1 -24.999h-322c-14.667 0 -25.5 -0.666992 -32.5 -2s-11.167 -6 -12.5 -14c-4 -21.333 9.33301 -44.833 40 -70.5
s62.667 -38.5 96 -38.5c21.333 0 43.333 5 66 15c15.333 6.66699 32 16.667 50 30l45 -52c-25.333 -21.333 -50.666 -37 -75.999 -47s-54.333 -15 -87 -15c-32 0 -62.333 6.83301 -91 20.5s-53.334 32.5 -74.001 56.5z" />
    <glyph glyph-name="ccedilla" unicode="&#xe7;" horiz-adv-x="374" 
d="M218 -7c-48.667 6 -91.335 26.6699 -128.002 62.0029c-22 21.333 -38.833 46 -50.5 74s-17.5 57.667 -17.5 89c0 36 7.33301 69.5 22 100.5s36 56.833 64 77.5c42 30 85.333 45 130 45c35.333 0 70.333 -9.33301 105 -28v-79c-29.333 24 -62 36 -98 36
c-39.333 0 -73.666 -13.333 -102.999 -40c-33.333 -30 -50 -69 -50 -117c0 -46 16.333 -82 49 -108c36.667 -28.667 71.667 -43 105 -43c16.667 0 32.834 3.16699 48.501 9.5s31.167 15.833 46.5 28.5v-84c-26.667 -12.667 -52.667 -20.334 -78 -23.001v-30.5
c0 -7.66699 0.333008 -13.5 1 -17.5c24 -6 43.5 -18.5 58.5 -37.5s22.5 -41.167 22.5 -66.5c0 -29.333 -10.333 -55 -31 -77s-46 -33 -76 -33s-55.333 11 -76 33l31 35c12 -14 26 -21 42 -21c17.333 0 32.333 5.66699 45 17s19 25.666 19 42.999
s-5.83301 32.166 -17.5 44.499s-26.167 18.5 -43.5 18.5c-4 0 -8.5 -0.5 -13.5 -1.5s-10.167 -2.83301 -15.5 -5.5l-19 42c9.33301 6 19 9.66699 29 11z" />
    <glyph glyph-name="egrave" unicode="&#xe8;" horiz-adv-x="495" 
d="M478 187l-322.002 -0.000976562c-14.667 0 -25.5 -0.666992 -32.5 -2s-11.167 -6 -12.5 -14c-4 -21.333 9.33301 -44.833 40 -70.5s62.667 -38.5 96 -38.5c21.333 0 43.333 5 66 15c15.333 6.66699 32 16.667 50 30l45 -52c-25.333 -21.333 -50.666 -37 -75.999 -47
s-54.333 -15 -87 -15c-61.333 0 -113.5 22.5 -156.5 67.5s-64.5 98.833 -64.5 161.5c0 60 22 111.333 66 154s96.667 64 158 64c62.667 0 116.834 -22.5 162.501 -67.5s68.5 -98.5 68.5 -160.5c0 -11.333 -0.333008 -19.666 -1 -24.999zM392.998 268.999
c-7.33301 29.333 -23.834 53.3311 -49.501 71.998s-55.167 28 -88.5 28c-32.667 0 -64.167 -11.667 -94.5 -35s-44.166 -46.666 -41.499 -69.999c0.666992 -3.33301 3.66699 -5.66602 9 -6.99902s11.333 -2 18 -2h13h186h17c11.333 0 19.833 1 25.5 3s7.5 5.66699 5.5 11z
M340.997 491.997l-187 32v47l187 -32v-47z" />
    <glyph glyph-name="eacute" unicode="&#xe9;" horiz-adv-x="495" 
d="M478 187l-322.002 -0.000976562c-14.667 0 -25.5 -0.666992 -32.5 -2s-11.167 -6 -12.5 -14c-4 -21.333 9.33301 -44.833 40 -70.5s62.667 -38.5 96 -38.5c21.333 0 43.333 5 66 15c15.333 6.66699 32 16.667 50 30l45 -52c-25.333 -21.333 -50.666 -37 -75.999 -47
s-54.333 -15 -87 -15c-61.333 0 -113.5 22.5 -156.5 67.5s-64.5 98.833 -64.5 161.5c0 60 22 111.333 66 154s96.667 64 158 64c62.667 0 116.834 -22.5 162.501 -67.5s68.5 -98.5 68.5 -160.5c0 -11.333 -0.333008 -19.666 -1 -24.999zM392.998 268.999
c-7.33301 29.333 -23.834 53.3311 -49.501 71.998s-55.167 28 -88.5 28c-32.667 0 -64.167 -11.667 -94.5 -35s-44.166 -46.666 -41.499 -69.999c0.666992 -3.33301 3.66699 -5.66602 9 -6.99902s11.333 -2 18 -2h13h186h17c11.333 0 19.833 1 25.5 3s7.5 5.66699 5.5 11z
M345.997 570.997v-47l-187 -32v47z" />
    <glyph glyph-name="ecircumflex" unicode="&#xea;" horiz-adv-x="493" 
d="M478 187l-322.002 -0.000976562c-14.667 0 -25.5 -0.666992 -32.5 -2s-11.167 -6 -12.5 -14c-4 -21.333 9.33301 -44.833 40 -70.5s62.667 -38.5 96 -38.5c21.333 0 43.333 5 66 15c15.333 6.66699 32 16.667 50 30l45 -52c-25.333 -21.333 -50.666 -37 -75.999 -47
s-54.333 -15 -87 -15c-61.333 0 -113.5 22.5 -156.5 67.5s-64.5 98.833 -64.5 161.5c0 60 22 111.333 66 154s96.667 64 158 64c62.667 0 116.834 -22.5 162.501 -67.5s68.5 -98.5 68.5 -160.5c0 -11.333 -0.333008 -19.666 -1 -24.999zM392.998 268.999
c-7.33301 29.333 -23.834 53.3311 -49.501 71.998s-55.167 28 -88.5 28c-32.667 0 -64.167 -11.667 -94.5 -35s-44.166 -46.666 -41.499 -69.999c0.666992 -3.33301 3.66699 -5.66602 9 -6.99902s11.333 -2 18 -2h13h186h17c11.333 0 19.833 1 25.5 3s7.5 5.66699 5.5 11z
M337.997 491.997l-92 31l-96 -31v47l96 32l92 -32v-47z" />
    <glyph glyph-name="edieresis" unicode="&#xeb;" horiz-adv-x="497" 
d="M478 187l-322.002 -0.000976562c-14.667 0 -25.5 -0.666992 -32.5 -2s-11.167 -6 -12.5 -14c-4 -21.333 9.33301 -44.833 40 -70.5s62.667 -38.5 96 -38.5c21.333 0 43.333 5 66 15c15.333 6.66699 32 16.667 50 30l45 -52c-25.333 -21.333 -50.666 -37 -75.999 -47
s-54.333 -15 -87 -15c-61.333 0 -113.5 22.5 -156.5 67.5s-64.5 98.833 -64.5 161.5c0 60 22 111.333 66 154s96.667 64 158 64c62.667 0 116.834 -22.5 162.501 -67.5s68.5 -98.5 68.5 -160.5c0 -11.333 -0.333008 -19.666 -1 -24.999zM392.998 268.999
c-7.33301 29.333 -23.834 53.3311 -49.501 71.998s-55.167 28 -88.5 28c-32.667 0 -64.167 -11.667 -94.5 -35s-44.166 -46.666 -41.499 -69.999c0.666992 -3.33301 3.66699 -5.66602 9 -6.99902s11.333 -2 18 -2h13h186h17c11.333 0 19.833 1 25.5 3s7.5 5.66699 5.5 11z
M129.997 527.997c0 13.333 3.33203 24.333 9.99902 33s16.334 13 29.001 13c10.667 0 20.667 -3.66699 30 -11s14 -16.666 14 -27.999s-3 -21 -9 -29s-14.667 -12.667 -26 -14c-12 -2.66699 -23 -0.333984 -33 6.99902s-15 17 -15 29zM279.996 527.997
c0 13.333 3.33203 24.333 9.99902 33s16.334 13 29.001 13c10.667 0 20.667 -3.66699 30 -11s14 -16.666 14 -27.999s-3 -21 -9 -29s-14.667 -12.667 -26 -14c-12 -2.66699 -23 -0.333984 -33 6.99902s-15 17 -15 29z" />
    <glyph glyph-name="igrave" unicode="&#xec;" horiz-adv-x="178" 
d="M47 -2v449h74v-449h-74zM181 492l-187 32v47l187 -32v-47z" />
    <glyph glyph-name="iacute" unicode="&#xed;" horiz-adv-x="178" 
d="M47 -2v449h74v-449h-74zM182 571v-47l-187 -32v47z" />
    <glyph glyph-name="icircumflex" unicode="&#xee;" horiz-adv-x="178" 
d="M47 -2v449h74v-449h-74zM181 492l-92 31l-96 -31v47l96 32l92 -32v-47z" />
    <glyph glyph-name="idieresis" unicode="&#xef;" horiz-adv-x="178" 
d="M47 -2v449h74v-449h-74zM-18 528c0 13.333 3.33203 24.333 9.99902 33s16.334 13 29.001 13c10.667 0 20.667 -3.66699 30 -11s14 -16.666 14 -27.999s-3 -21 -9 -29s-14.667 -12.667 -26 -14c-12 -2.66699 -23 -0.333984 -33 6.99902s-15 17 -15 29zM115.999 528
c0 13.333 3.33203 24.333 9.99902 33s16.334 13 29.001 13c10.667 0 20.667 -3.66699 30 -11s14 -16.666 14 -27.999s-3 -21 -9 -29s-14.667 -12.667 -26 -14c-12 -2.66699 -23 -0.333984 -33 6.99902s-15 17 -15 29z" />
    <glyph glyph-name="eth" unicode="&#xf0;" horiz-adv-x="554" 
d="M436 248c0 42.667 -17.168 77.999 -51.501 105.999s-74.5 42 -120.5 42c-42.667 0 -78.167 -17.167 -106.5 -51.5s-42.5 -74.166 -42.5 -119.499c0 -42.667 17 -78 51 -106s74 -42 120 -42c42.667 0 78.334 17 107.001 51s43 74 43 120zM379.999 573.999l81 -155.001
l34 -66c18 -38 27 -76 27 -114c0 -69.333 -23.333 -128.333 -70 -177s-103.667 -73 -171 -73c-69.333 0 -129.5 23.833 -180.5 71.5s-76.5 105.834 -76.5 174.501c0 65.333 23 121.333 69 168s103 70 171 70c18 0 36.667 -2 56 -6c5.33301 -0.666992 8 1.33301 8 6
s-2.33301 12 -7 22s-7.66699 16.667 -9 20l-15 28l-73 -26l-20 56l64 23l-41 79l85 28l40 -76l68 25l20 -56z" />
    <glyph glyph-name="ntilde" unicode="&#xf1;" horiz-adv-x="464" 
d="M117 263l0.000976562 -263h-69v288c0 54 19 94.333 57 121c33.333 23.333 76.333 35 129 35c52 0 94.667 -12.333 128 -37c38 -28 57 -67.667 57 -119v-288h-73v254c0 40.667 -10.167 70.167 -30.5 88.5s-47.5 27.5 -81.5 27.5c-32.667 0 -60.334 -9.16699 -83.001 -27.5
s-34 -44.833 -34 -79.5zM207.001 523c-10.667 0 -24.3301 -5 -40.9971 -15c-5.33301 -3.33301 -13 -8.66602 -23 -15.999v47c9.33301 7.33301 16.666 12.666 21.999 15.999c16.667 10.667 30.667 16 42 16c7.33301 0 16.666 -3.16699 27.999 -9.5l35 -19.5
c10.667 0 24 5 40 15c5.33301 3.33301 12.666 8.66602 21.999 15.999v-47c-8.66699 -7.33301 -15.667 -12.666 -21 -15.999c-16 -10.667 -29.667 -16 -41 -16c-8 0 -22 6.33301 -42 19c-10.667 6.66699 -17.667 10 -21 10z" />
    <glyph glyph-name="ograve" unicode="&#xf2;" horiz-adv-x="498" 
d="M27 219c0 61.333 22.167 113.5 66.5 156.5s97.833 64.5 160.5 64.5c61.333 0 113.5 -22.167 156.5 -66.5s64.5 -97.5 64.5 -159.5c0 -61.333 -21.5 -113.5 -64.5 -156.5s-95.167 -64.5 -156.5 -64.5c-62.667 0 -116.167 22.167 -160.5 66.5s-66.5 97.5 -66.5 159.5z
M254 369c-42 0 -78.001 -14.666 -108.001 -43.999s-45 -65.333 -45 -108s14.833 -78.834 44.5 -108.501s65.834 -44.5 108.501 -44.5s78.667 15.333 108 46s44 67.667 44 111c0 41.333 -15 76.333 -45 105s-65.667 43 -107 43zM352.999 492.001l-187 32v47l187 -32v-47z" />
    <glyph glyph-name="oacute" unicode="&#xf3;" horiz-adv-x="498" 
d="M27 219c0 61.333 22.167 113.5 66.5 156.5s97.833 64.5 160.5 64.5c61.333 0 113.5 -22.167 156.5 -66.5s64.5 -97.5 64.5 -159.5c0 -61.333 -21.5 -113.5 -64.5 -156.5s-95.167 -64.5 -156.5 -64.5c-62.667 0 -116.167 22.167 -160.5 66.5s-66.5 97.5 -66.5 159.5z
M254 369c-42 0 -78.001 -14.666 -108.001 -43.999s-45 -65.333 -45 -108s14.833 -78.834 44.5 -108.501s65.834 -44.5 108.501 -44.5s78.667 15.333 108 46s44 67.667 44 111c0 41.333 -15 76.333 -45 105s-65.667 43 -107 43zM353.999 565.001v-47l-187 -32v47z" />
    <glyph glyph-name="ocircumflex" unicode="&#xf4;" horiz-adv-x="498" 
d="M27 219c0 61.333 22.167 113.5 66.5 156.5s97.833 64.5 160.5 64.5c61.333 0 113.5 -22.167 156.5 -66.5s64.5 -97.5 64.5 -159.5c0 -61.333 -21.5 -113.5 -64.5 -156.5s-95.167 -64.5 -156.5 -64.5c-62.667 0 -116.167 22.167 -160.5 66.5s-66.5 97.5 -66.5 159.5z
M254 369c-42 0 -78.001 -14.666 -108.001 -43.999s-45 -65.333 -45 -108s14.833 -78.834 44.5 -108.501s65.834 -44.5 108.501 -44.5s78.667 15.333 108 46s44 67.667 44 111c0 41.333 -15 76.333 -45 105s-65.667 43 -107 43zM345.999 492.001l-92 31l-96 -31v47l96 32
l92 -32v-47z" />
    <glyph glyph-name="otilde" unicode="&#xf5;" horiz-adv-x="498" 
d="M27 219c0 61.333 22.167 113.5 66.5 156.5s97.833 64.5 160.5 64.5c61.333 0 113.5 -22.167 156.5 -66.5s64.5 -97.5 64.5 -159.5c0 -61.333 -21.5 -113.5 -64.5 -156.5s-95.167 -64.5 -156.5 -64.5c-62.667 0 -116.167 22.167 -160.5 66.5s-66.5 97.5 -66.5 159.5z
M254 369c-42 0 -78.001 -14.666 -108.001 -43.999s-45 -65.333 -45 -108s14.833 -78.834 44.5 -108.501s65.834 -44.5 108.501 -44.5s78.667 15.333 108 46s44 67.667 44 111c0 41.333 -15 76.333 -45 105s-65.667 43 -107 43zM226.999 521.001
c-10.667 0 -24.3301 -5 -40.9971 -15c-5.33301 -3.33301 -13 -8.66602 -23 -15.999v47c9.33301 7.33301 16.666 12.666 21.999 15.999c16.667 10.667 30.667 16 42 16c7.33301 0 16.666 -3.16699 27.999 -9.5l35 -19.5c10.667 0 24 5 40 15
c5.33301 3.33301 12.666 8.66602 21.999 15.999v-47c-8.66699 -7.33301 -15.667 -12.666 -21 -15.999c-16 -10.667 -29.667 -16 -41 -16c-8 0 -22 6.33301 -42 19c-10.667 6.66699 -17.667 10 -21 10z" />
    <glyph glyph-name="odieresis" unicode="&#xf6;" horiz-adv-x="498" 
d="M27 219c0 61.333 22.167 113.5 66.5 156.5s97.833 64.5 160.5 64.5c61.333 0 113.5 -22.167 156.5 -66.5s64.5 -97.5 64.5 -159.5c0 -61.333 -21.5 -113.5 -64.5 -156.5s-95.167 -64.5 -156.5 -64.5c-62.667 0 -116.167 22.167 -160.5 66.5s-66.5 97.5 -66.5 159.5z
M254 369c-42 0 -78.001 -14.666 -108.001 -43.999s-45 -65.333 -45 -108s14.833 -78.834 44.5 -108.501s65.834 -44.5 108.501 -44.5s78.667 15.333 108 46s44 67.667 44 111c0 41.333 -15 76.333 -45 105s-65.667 43 -107 43zM137.999 528.001
c0 13.333 3.33203 24.333 9.99902 33s16.334 13 29.001 13c10.667 0 20.667 -3.66699 30 -11s14 -16.666 14 -27.999s-3 -21 -9 -29s-14.667 -12.667 -26 -14c-12 -2.66699 -23 -0.333984 -33 6.99902s-15 17 -15 29zM287.998 528.001c0 13.333 3.33203 24.333 9.99902 33
s16.334 13 29.001 13c10.667 0 20.667 -3.66699 30 -11s14 -16.666 14 -27.999s-3 -21 -9 -29s-14.667 -12.667 -26 -14c-12 -2.66699 -23 -0.333984 -33 6.99902s-15 17 -15 29z" />
    <glyph glyph-name="oslash" unicode="&#xf8;" horiz-adv-x="498" 
d="M254 369c-42 0 -78.001 -14.666 -108.001 -43.999s-45 -65.333 -45 -108s14.833 -78.834 44.5 -108.501s65.834 -44.5 108.501 -44.5s78.667 15.333 108 46s44 67.667 44 111c0 41.333 -15 76.333 -45 105s-65.667 43 -107 43zM84.999 67.001
c-18 20.667 -32.167 44.167 -42.5 70.5s-15.5 53.5 -15.5 81.5c0 61.333 22.167 113.5 66.5 156.5s97.833 64.5 160.5 64.5c38 0 73.667 -9.33301 107 -28l29 31h73l-56 -65c45.333 -44 68 -98.667 68 -164c0 -61.333 -21.5 -113.5 -64.5 -156.5s-95.167 -64.5 -156.5 -64.5
c-46 0 -88 12.333 -126 37l-24 -30h-73z" />
    <glyph glyph-name="ugrave" unicode="&#xf9;" horiz-adv-x="476" 
d="M118 448l-0.000976562 -268c0 -31.333 11.833 -57.666 35.5 -78.999s51.834 -32 84.501 -32c32 0 59.333 11.667 82 35s34 51.666 34 84.999v259h75v-295c0 -46.667 -19.167 -85 -57.5 -115s-82.833 -45 -133.5 -45c-51.333 0 -95.333 14.333 -132 43
c-39.333 30.667 -59 69.667 -59 117v295h71zM332.999 492l-187 32v47l187 -32v-47z" />
    <glyph glyph-name="uacute" unicode="&#xfa;" horiz-adv-x="476" 
d="M118 448l-0.000976562 -268c0 -31.333 11.833 -57.666 35.5 -78.999s51.834 -32 84.501 -32c32 0 59.333 11.667 82 35s34 51.666 34 84.999v259h75v-295c0 -46.667 -19.167 -85 -57.5 -115s-82.833 -45 -133.5 -45c-51.333 0 -95.333 14.333 -132 43
c-39.333 30.667 -59 69.667 -59 117v295h71zM325.999 571v-47l-187 -32v47z" />
    <glyph glyph-name="ucircumflex" unicode="&#xfb;" horiz-adv-x="476" 
d="M118 448l-0.000976562 -268c0 -31.333 11.833 -57.666 35.5 -78.999s51.834 -32 84.501 -32c32 0 59.333 11.667 82 35s34 51.666 34 84.999v259h75v-295c0 -46.667 -19.167 -85 -57.5 -115s-82.833 -45 -133.5 -45c-51.333 0 -95.333 14.333 -132 43
c-39.333 30.667 -59 69.667 -59 117v295h71zM329.999 492l-92 31l-96 -31v47l96 32l92 -32v-47z" />
    <glyph glyph-name="udieresis" unicode="&#xfc;" horiz-adv-x="476" 
d="M118 448l-0.000976562 -268c0 -31.333 11.833 -57.666 35.5 -78.999s51.834 -32 84.501 -32c32 0 59.333 11.667 82 35s34 51.666 34 84.999v259h75v-295c0 -46.667 -19.167 -85 -57.5 -115s-82.833 -45 -133.5 -45c-51.333 0 -95.333 14.333 -132 43
c-39.333 30.667 -59 69.667 -59 117v295h71zM113.999 528c0 13.333 3.33203 24.333 9.99902 33s16.334 13 29.001 13c10.667 0 20.667 -3.66699 30 -11s14 -16.666 14 -27.999s-3 -21 -9 -29s-14.667 -12.667 -26 -14c-12 -2.66699 -23 -0.333984 -33 6.99902s-15 17 -15 29
zM263.998 528c0 13.333 3.33203 24.333 9.99902 33s16.334 13 29.001 13c10.667 0 20.667 -3.66699 30 -11s14 -16.666 14 -27.999s-3 -21 -9 -29s-14.667 -12.667 -26 -14c-12 -2.66699 -23 -0.333984 -33 6.99902s-15 17 -15 29z" />
    <glyph glyph-name="yacute" unicode="&#xfd;" horiz-adv-x="480" 
d="M357 192l-0.00195312 256h80v-364c0 -107.333 -23.333 -188.333 -70 -243c-40 -46.667 -96 -73.667 -168 -81c-8 -0.666992 -15 -1.16699 -21 -1.5s-10.667 -0.5 -14 -0.5c-38.667 0 -73.167 7.83301 -103.5 23.5s-59.166 39.5 -86.499 71.5l56 44
c18.667 -24 45.334 -42 80.001 -54c27.333 -9.33301 56.333 -14 87 -14c58 0 102 24 132 72c22 35.333 33 74 33 116c0 12 -1 19.667 -3 23c-1.33301 2.66699 -3 3 -5 1c-12.667 -14 -28 -26 -46 -36c-22.667 -12.667 -45 -19 -67 -19c-6 -0.666992 -10.667 -1 -14 -1
c-49.333 0 -91.833 19.5 -127.5 58.5s-53.5 85.167 -53.5 138.5v266h82v-262c0 -33.333 11 -62.333 33 -87s49 -37 81 -37c34 0 61.667 12.833 83 38.5s32 56.167 32 91.5zM333.998 569v-47l-187 -32v47z" />
    <glyph glyph-name="thorn" unicode="&#xfe;" horiz-adv-x="528" 
d="M275 301c-41.333 0 -77.167 -14.832 -107.5 -44.499s-45.5 -65.5 -45.5 -107.5s15 -78 45 -108s66 -45 108 -45s77.833 15.167 107.5 45.5s44.5 67.166 44.5 110.499c0 41.333 -14.833 76.5 -44.5 105.5s-65.5 43.5 -107.5 43.5zM47.999 448.001h74v-146
c22 21.333 46 38.333 72 51s53 19 81 19c61.333 0 113.5 -22.167 156.5 -66.5s64.5 -97.833 64.5 -160.5c0 -61.333 -21.333 -113.333 -64 -156s-95 -64 -157 -64c-32.667 0 -61.667 5.66699 -87 17c-10 4.66699 -32 18 -66 40v-245h-74v711z" />
    <glyph glyph-name="ydieresis" unicode="&#xff;" horiz-adv-x="480" 
d="M357 192l-0.00195312 256h80v-364c0 -107.333 -23.333 -188.333 -70 -243c-40 -46.667 -96 -73.667 -168 -81c-8 -0.666992 -15 -1.16699 -21 -1.5s-10.667 -0.5 -14 -0.5c-38.667 0 -73.167 7.83301 -103.5 23.5s-59.166 39.5 -86.499 71.5l56 44
c18.667 -24 45.334 -42 80.001 -54c27.333 -9.33301 56.333 -14 87 -14c58 0 102 24 132 72c22 35.333 33 74 33 116c0 12 -1 19.667 -3 23c-1.33301 2.66699 -3 3 -5 1c-12.667 -14 -28 -26 -46 -36c-22.667 -12.667 -45 -19 -67 -19c-6 -0.666992 -10.667 -1 -14 -1
c-49.333 0 -91.833 19.5 -127.5 58.5s-53.5 85.167 -53.5 138.5v266h82v-262c0 -33.333 11 -62.333 33 -87s49 -37 81 -37c34 0 61.667 12.833 83 38.5s32 56.167 32 91.5zM117.998 528c0 13.333 3.33203 24.333 9.99902 33s16.334 13 29.001 13
c10.667 0 20.667 -3.66699 30 -11s14 -16.666 14 -27.999s-3 -21 -9 -29s-14.667 -12.667 -26 -14c-12 -2.66699 -23 -0.333984 -33 6.99902s-15 17 -15 29zM267.997 528c0 13.333 3.33203 24.333 9.99902 33s16.334 13 29.001 13c10.667 0 20.667 -3.66699 30 -11
s14 -16.666 14 -27.999s-3 -21 -9 -29s-14.667 -12.667 -26 -14c-12 -2.66699 -23 -0.333984 -33 6.99902s-15 17 -15 29z" />
    <glyph glyph-name="dotlessi" unicode="&#x131;" horiz-adv-x="178" 
d="M47 -2v449h74v-449h-74z" />
    <glyph glyph-name="Lslash" unicode="&#x141;" horiz-adv-x="414" 
d="M144 367v-243c0 -15.333 1 -25 3 -29s8.66699 -6 20 -6h17h198v-89h-335v332l-40 -15l-20 56l60 22v316h97v-281l59 22l20 -56z" />
    <glyph glyph-name="lslash" unicode="&#x142;" horiz-adv-x="168" 
d="M121 362v-362h-74v335l-61 -22l-20 56l81 30v312h74v-285l61 22l20 -56z" />
    <glyph glyph-name="OE" unicode="&#x152;" horiz-adv-x="1026" 
d="M393 621c-76 0 -141 -26.667 -195 -80s-81 -118.333 -81 -195c0 -76 27 -140.667 81 -194s119 -80 195 -80s140.667 26.667 194 80s80 118 80 194s-26.833 140.833 -80.5 194.5s-118.167 80.5 -193.5 80.5zM667 123c-34 -41.333 -75.168 -73.832 -123.501 -97.499
s-100.166 -35.5 -155.499 -35.5c-97.333 0 -180.833 35.167 -250.5 105.5s-104.5 154.833 -104.5 253.5c0 98 35.167 181.5 105.5 250.5s155.166 103.5 254.499 103.5c55.333 0 106.5 -11.667 153.5 -35s87.167 -56.333 120.5 -99v142h327v-82h-193h-12
c-15.333 0 -24.666 -2 -27.999 -6s-5 -10 -5 -18v-12l-1 -121c0 -15.333 2.33301 -25.833 7 -31.5s12.667 -8.5 24 -8.5h10h185v-86h-189c-8 0 -13.667 -0.333008 -17 -1c-4.66699 -0.666992 -9.16699 -3.33398 -13.5 -8.00098s-6.5 -12 -6.5 -22v-9l1 -174l2 -33
c1.33301 -2 4.5 -3.66699 9.5 -5s13.167 -2 24.5 -2h210v-92h-335v123z" />
    <glyph glyph-name="oe" unicode="&#x153;" horiz-adv-x="862" 
d="M254 369c-42 0 -78.001 -14.666 -108.001 -43.999s-45 -65.333 -45 -108s14.833 -78.834 44.5 -108.501s65.834 -44.5 108.501 -44.5s78.667 15.333 108 46s44 67.667 44 111c0 41.333 -15 76.333 -45 105s-65.667 43 -107 43zM754.999 263.001
c-7.33301 29.333 -23.834 53.3311 -49.501 71.998s-55.167 28 -88.5 28c-32.667 0 -64.167 -11.667 -94.5 -35s-44.166 -46.666 -41.499 -69.999c0.666992 -3.33301 3.66699 -5.66602 9 -6.99902s11.333 -2 18 -2h13h186h17c11.333 0 19.833 1 25.5 3s7.5 5.66699 5.5 11z
M428.998 79.999c-20.667 -26.667 -46.001 -47.8369 -76.001 -63.5039s-63 -23.5 -99 -23.5c-62.667 0 -116.167 22.167 -160.5 66.5s-66.5 97.5 -66.5 159.5c0 61.333 22.167 113.5 66.5 156.5s97.833 64.5 160.5 64.5c36 0 69.5 -8.16699 100.5 -24.5
s56.833 -39.166 77.5 -68.499c21.333 26.667 47.666 47.834 78.999 63.501s64.333 23.5 99 23.5c62.667 0 116.834 -22.5 162.501 -67.5s68.5 -98.5 68.5 -160.5c0 -11.333 -0.333008 -19.666 -1 -24.999h-322c-14.667 0 -25.5 -0.666992 -32.5 -2s-11.167 -6 -12.5 -14
c-4 -21.333 9.33301 -44.833 40 -70.5s62.667 -38.5 96 -38.5c21.333 0 43.333 5 66 15c15.333 6.66699 32 16.667 50 30l45 -52c-25.333 -21.333 -50.666 -37 -75.999 -47s-54.333 -15 -87 -15c-35.333 0 -68.5 8.33301 -99.5 25s-57.167 39.334 -78.5 68.001z" />
    <glyph glyph-name="Scaron" unicode="&#x160;" horiz-adv-x="478" 
d="M314 571c-14 24.667 -26.8311 40.999 -38.498 48.999s-28.167 12 -49.5 12c-26 0 -48 -10.333 -66 -31s-27 -44.334 -27 -71.001c0 -32.667 27 -60.667 81 -84c85.333 -36.667 135.666 -60.667 150.999 -72c54 -40 81 -97.333 81 -172c0 -58 -20.833 -107.5 -62.5 -148.5
s-90.167 -61.5 -145.5 -61.5c-46.667 0 -90.334 14.667 -131.001 44c-44 32 -71.667 72.667 -83 122l82 35c6.66699 -33.333 21.5 -60.666 44.5 -81.999s51.167 -32 84.5 -32s62.666 12.333 87.999 37s38 53.334 38 86.001c0 57.333 -27 99.666 -81 126.999l-151 61
c-54 29.333 -81 75.666 -81 138.999c0 50.667 16.167 93.834 48.5 129.501s75.5 53.5 129.5 53.5c36.667 0 69.834 -9.66699 99.501 -29s50.167 -45.666 61.5 -78.999zM130.002 777.999v47l96 -31l92 31v-47l-92 -32z" />
    <glyph glyph-name="scaron" unicode="&#x161;" horiz-adv-x="362" 
d="M235 350c-6.66699 12 -15.166 21.668 -25.499 29.001s-21.833 10.333 -34.5 9c-14.667 -2.66699 -25.834 -9.83398 -33.501 -21.501s-11.5 -25.167 -11.5 -40.5c0 -20.667 34.167 -41.834 102.5 -63.501s102.5 -62.5 102.5 -122.5c0 -43.333 -14.667 -78 -44 -104
s-65.333 -39 -108 -39c-45.333 0 -83.166 15.5 -113.499 46.5s-45.5 70.5 -45.5 118.5l75 -25c-2.66699 -26 4.16602 -45 20.499 -57s36.833 -18 61.5 -18c23.333 0 43.333 7.16699 60 21.5s25 32.833 25 55.5c0 26.667 -35.333 51.334 -106 74.001s-106 58.667 -106 108
c0 33.333 12.167 61.833 36.5 85.5s53.833 35.5 88.5 35.5c32 0 59.5 -10 82.5 -30s36.167 -46 39.5 -78zM82.001 522.001v47l96 -31l92 31v-47l-92 -32z" />
    <glyph glyph-name="Ydieresis" unicode="&#x178;" horiz-adv-x="531" 
d="M210 260c0 22.667 -12 61.333 -36 116c-18.667 42.667 -46 98.334 -82 167.001l-89 168h105c57.333 -123.333 97 -204.666 119 -243.999c17.333 -31.333 30.333 -47 39 -47c7.33301 0 18 11 32 33c11.333 18 29.333 51 54 99c52.667 102.667 80 155.667 82 159h97
c-8.66699 -17.333 -38 -70.333 -88 -159c-38 -67.333 -68 -124.333 -90 -171c-28 -58.667 -42 -99.334 -42 -122.001v-22v-17v-37v-33v-29v-24v-20v-16v-13v-32.5c0 -7.66699 -0.333008 -12.834 -1 -15.501h-100v102.5v157.5zM149 781.999
c0 13.333 3.33203 24.333 9.99902 33s16.334 13 29.001 13c10.667 0 20.667 -3.66699 30 -11s14 -16.666 14 -27.999s-3 -21 -9 -29s-14.667 -12.667 -26 -14c-12 -2.66699 -23 -0.333984 -33 6.99902s-15 17 -15 29zM298.999 781.999c0 13.333 3.33203 24.333 9.99902 33
s16.334 13 29.001 13c10.667 0 20.667 -3.66699 30 -11s14 -16.666 14 -27.999s-3 -21 -9 -29s-14.667 -12.667 -26 -14c-12 -2.66699 -23 -0.333984 -33 6.99902s-15 17 -15 29z" />
    <glyph glyph-name="Zcaron" unicode="&#x17d;" horiz-adv-x="512" 
d="M88 625l-0.000976562 86h408l-80 -158l-149 -296l-82 -164c-0.666992 -4 1.83301 -6.5 7.5 -7.5s13.834 -1.5 24.501 -1.5h261v-84h-454l315 612c0 5.33301 -3 8.83301 -9 10.5s-15 2.5 -27 2.5h-17h-198zM189.999 778v47l96 -31l92 31v-47l-92 -32z" />
    <glyph glyph-name="zcaron" unicode="&#x17e;" horiz-adv-x="381" 
d="M48 383v64.999h312l-186 -317c-10 -16.667 -16 -27 -18 -31c-6 -12 -7.33301 -20.333 -4 -25c2 -3.33301 5.33301 -5.66602 10 -6.99902c2.66699 -0.666992 7.66699 -1 15 -1h11h177v-67h-353l187 324l18 30c2.66699 6 2.66699 11.333 0 16
c-3.33301 5.33301 -7.83301 8.83301 -13.5 10.5s-13.167 2.5 -22.5 2.5h-133zM98 521.999v47l96 -31l92 31v-47l-92 -32z" />
    <glyph glyph-name="florin" unicode="&#x192;" horiz-adv-x="354" 
d="M30 33l49.9971 284.998c1.33301 5.33301 2.66602 11 3.99902 17s2 10.667 2 14c0 4 -1.66699 8.83301 -5 14.5s-8.33301 9.66699 -15 12s-15.334 3.5 -26.001 3.5h-24l13 70h7c6 -0.666992 12 -1 18 -1c16 0 27.833 0.666992 35.5 2s11.834 4.33301 12.501 9
c10.667 38.667 21.834 69.5 33.501 92.5s28.834 46.167 51.501 69.5c11.333 12.667 33 28.834 65 48.501s55 30.834 69 33.501l33 6l-13 -74l-16 -5c-10.667 -2.66699 -25 -10 -43 -22c-22 -14.667 -39.667 -30.667 -53 -48c-10 -14 -18.833 -29.5 -26.5 -46.5
s-11.5 -31.5 -11.5 -43.5v-6c1.33301 -2.66699 2 -4.33398 2 -5.00098c3.33301 -5.33301 8 -8.83301 14 -10.5s14.667 -2.5 26 -2.5h25h29l-12 -67h-22c-26 0 -44.333 -0.666992 -55 -2s-18.667 -6.33301 -24 -15s-8.5 -16.167 -9.5 -22.5s-2.16699 -12.5 -3.5 -18.5
l-51 -283c-5.33301 -36 -14.166 -66 -26.499 -90s-32.5 -50.333 -60.5 -79c-14.667 -15.333 -39.667 -32.666 -75 -51.999c-44 -24 -80.667 -36 -110 -36l13 74c27.333 3.33301 54 12.5 80 27.5s45.833 31.5 59.5 49.5s22.834 33.333 27.501 46s8.66699 31 12 55z" />
    <glyph glyph-name="hungarumlaut" unicode="&#x2ba;" horiz-adv-x="340" 
d="M270 792l-63.001 -51.001l-30 11l25 87c8 19.333 22 29 42 29c4.66699 0 9.66699 -1 15 -3c17.333 -7.33301 26 -20.333 26 -39c0 -3.33301 -0.666992 -7.66602 -2 -12.999c-3.33301 -10.667 -7.66602 -17.667 -12.999 -21zM136.999 790.999l-63 -50.002l-31 11
c4 14 7 25 9 33c7.33301 26.667 12.666 44.667 15.999 54c8 19.333 22.333 29 43 29c4.66699 0 9.66699 -1 15 -3c17.333 -7.33301 26 -20.666 26 -39.999c0 -3.33301 -0.666992 -7.66602 -2 -12.999c-3.33301 -9.33301 -7.66602 -16.333 -12.999 -21z" />
    <glyph glyph-name="circumflex" unicode="&#x2c6;" 
d="M378 749l-92 31l-96 -31v47l96 32l92 -32v-47z" />
    <glyph glyph-name="caron" unicode="&#x2c7;" 
d="M190 778v47l96 -31l92 31v-47l-92 -32z" />
    <glyph glyph-name="breve" unicode="&#x2d8;" 
d="M190 778v47.001c14 -6.66699 25 -11.667 33 -15c26.667 -10.667 47.667 -16 63 -16c16 0 36 5 60 15c8 3.33301 18.667 8.66602 32 15.999v-47c-12.667 -7.33301 -23 -12.666 -31 -15.999c-24 -10.667 -44.333 -16 -61 -16c-16 0 -36.667 5.33301 -62 16
c-8 3.33301 -19.333 8.66602 -34 15.999z" />
    <glyph glyph-name="dotaccent" unicode="&#x2d9;" horiz-adv-x="164" 
d="M40 781c0 13.333 3.33203 24.333 9.99902 33s16.334 13 29.001 13c10.667 0 20.667 -3.66699 30 -11s14 -16.666 14 -27.999s-3 -21 -9 -29s-14.667 -12.667 -26 -14c-12 -2.66699 -23 -0.333984 -33 6.99902s-15 17 -15 29z" />
    <glyph glyph-name="ring" unicode="&#x2da;" horiz-adv-x="614" 
d="M237 821c0 19.333 7 36 21 50s30.667 21 50 21s36 -7 50 -21s21 -30.667 21 -50c0 -20 -6.66699 -37.333 -20 -52s-30.333 -22 -51 -22c-19.333 0 -36 7.33301 -50 22s-21 32 -21 52zM308 861c-12 0 -21.667 -4 -29 -12s-11 -18 -11 -30s4 -21.667 12 -29s18 -11 30 -11
c10.667 0 19.667 4 27 12s11 18 11 30c0 11.333 -3.83301 20.833 -11.5 28.5s-17.167 11.5 -28.5 11.5z" />
    <glyph glyph-name="ogonek" unicode="&#x2db;" horiz-adv-x="614" 
d="M324 -256c-20.667 -22 -45.998 -33 -75.998 -33c-29.333 0 -54.5 10.833 -75.5 32.5s-31.5 47.5 -31.5 77.5c0 24.667 7.66699 46.667 23 66s34.666 32 57.999 38c0.666992 3.33301 1 7.66602 1 12.999v15v40c0 13.333 0.666992 20.333 2 21l39 -1
c0.666992 0 1.33398 -7.5 2.00098 -22.5s1 -24.5 1 -28.5v-29v-6c10 -1.33301 19.667 -5 29 -11l-19 -42c-10.667 4.66699 -20.334 7 -29.001 7c-17.333 0 -31.833 -6.16699 -43.5 -18.5s-17.5 -27.166 -17.5 -44.499c0 -16.667 6.16699 -30.834 18.5 -42.501
s27.5 -17.5 45.5 -17.5c8 0 15.667 1.83301 23 5.5s13.666 8.83398 18.999 15.501z" />
    <glyph glyph-name="tilde" unicode="&#x2dc;" 
d="M207 775c-10.667 0 -24.3301 -5 -40.9971 -15c-5.33301 -3.33301 -13 -8.66602 -23 -15.999v47c9.33301 7.33301 16.666 12.666 21.999 15.999c16.667 10.667 30.667 16 42 16c7.33301 0 16.666 -3.16699 27.999 -9.5l35 -19.5c10.667 0 24 5 40 15
c5.33301 3.33301 12.666 8.66602 21.999 15.999v-47c-8.66699 -7.33301 -15.667 -12.666 -21 -15.999c-16 -10.667 -29.667 -16 -41 -16c-8 0 -22 6.33301 -42 19c-10.667 6.66699 -17.667 10 -21 10z" />
    <glyph glyph-name="pi" unicode="&#x3c0;" horiz-adv-x="264" 
d="M120 194v-194.001h-73v181v22.5v15.5c0 50 4.16699 86.167 12.5 108.5s21.5 42.5 39.5 60.5c22 22 45 37.5 69 46.5s52.667 13.5 86 13.5v-73c-25.333 0 -46.833 -3.66699 -64.5 -11s-32.167 -21.166 -43.5 -41.499s-18.5 -38 -21.5 -53s-4.5 -34.167 -4.5 -57.5v-18z
M66 521.999v47l96 -31l92 31v-47l-92 -32z" />
    <glyph glyph-name="endash" unicode="&#x2013;" horiz-adv-x="326" 
d="M23 231v59h276v-59h-276z" />
    <glyph glyph-name="emdash" unicode="&#x2014;" horiz-adv-x="442" 
d="M23 231v59h388v-59h-388z" />
    <glyph glyph-name="quoteleft" unicode="&#x2018;" horiz-adv-x="163" 
d="M31 625l56.001 91.002h42l-33 -45c-2 -2.66699 -3.66699 -5.33398 -5 -8.00098c-2 -4.66699 -2.33301 -7.66699 -1 -9l30 -23c11.333 -10.667 17 -22.334 17 -35.001c0 -16 -5.66699 -29.667 -17 -41s-25.333 -17 -42 -17c-14.667 0 -27.334 5.33301 -38.001 16
s-16 23.667 -16 39c0 14 2.33301 24.667 7 32z" />
    <glyph glyph-name="quoteright" unicode="&#x2019;" horiz-adv-x="162" 
d="M131 628l-56 -91.002h-43l34 45c2 2.66699 3.66699 5.33398 5 8.00098c2 4 2 6.66699 0 8l-30 23c-11.333 10.667 -17 22.334 -17 35.001c0 16.667 5.66699 30.667 17 42s25.666 17 42.999 17c14.667 0 27.334 -5.33301 38.001 -16s16 -23.667 16 -39
c0 -13.333 -2.33301 -24 -7 -32z" />
    <glyph glyph-name="quotesinglbase" unicode="&#x201a;" horiz-adv-x="162" 
d="M129 24l-56 -91.002h-43l34 45c2 2.66699 3.66699 5.33398 5 8.00098c2 4 2 6.66699 0 8l-30 23c-11.333 10.667 -17 22.334 -17 35.001c0 16.667 5.66699 30.667 17 42s25.666 17 42.999 17c14.667 0 27.334 -5.33301 38.001 -16s16 -23.667 16 -39
c0 -13.333 -2.33301 -24 -7 -32z" />
    <glyph glyph-name="quotedblleft" unicode="&#x201c;" horiz-adv-x="350" 
d="M31 627l56.001 91.002h42l-33 -45c-2 -2.66699 -3.66699 -5.33398 -5 -8.00098c-2 -4.66699 -2.33301 -7.66699 -1 -9l30 -23c11.333 -10.667 17 -22.334 17 -35.001c0 -16 -5.66699 -29.667 -17 -41s-25.333 -17 -42 -17c-14.667 0 -27.334 5.33301 -38.001 16
s-16 23.667 -16 39c0 14 2.33301 24.667 7 32zM208.001 627.002l56 91h43l-34 -45l-4 -8c-2 -4.66699 -2.33301 -7.66699 -1 -9l30 -23c11.333 -10.667 17 -22.334 17 -35.001c0 -16 -5.66699 -29.667 -17 -41s-25.333 -17 -42 -17c-15.333 0 -28.333 5.33301 -39 16
s-16 23.667 -16 39c0 12.667 2.33301 23.334 7 32.001z" />
    <glyph glyph-name="quotedblright" unicode="&#x201d;" horiz-adv-x="340" 
d="M309 626l-56 -91.001h-43l34 45l4 8c2 4 2.33301 6.66699 1 8l-30 23c-11.333 10.667 -17 22.334 -17 35.001c0 16.667 5.66699 30.667 17 42s25.333 17 42 17c15.333 0 28.333 -5.33301 39 -16s16 -23.667 16 -39c0 -13.333 -2.33301 -24 -7 -32zM131 625.999
l-56 -91.002h-43l34 45c2 2.66699 3.66699 5.33398 5 8.00098c2 4 2 6.66699 0 8l-30 23c-11.333 10.667 -17 22.334 -17 35.001c0 16.667 5.66699 30.667 17 42s25.666 17 42.999 17c14.667 0 27.334 -5.33301 38.001 -16s16 -23.667 16 -39c0 -13.333 -2.33301 -24 -7 -32
z" />
    <glyph glyph-name="quotedblbase" unicode="&#x201e;" horiz-adv-x="340" 
d="M306 32l-56 -91.001h-43l34 45l4 8c2 4 2.33301 6.66699 1 8l-30 23c-11.333 10.667 -17 22.334 -17 35.001c0 16.667 5.66699 30.667 17 42s25.333 17 42 17c15.333 0 28.333 -5.33301 39 -16s16 -23.667 16 -39c0 -13.333 -2.33301 -24 -7 -32zM128 31.999l-56 -91.002
h-43l34 45c2 2.66699 3.66699 5.33398 5 8.00098c2 4 2 6.66699 0 8l-30 23c-11.333 10.667 -17 22.334 -17 35.001c0 16.667 5.66699 30.667 17 42s25.666 17 42.999 17c14.667 0 27.334 -5.33301 38.001 -16s16 -23.667 16 -39c0 -13.333 -2.33301 -24 -7 -32z" />
    <glyph glyph-name="dagger" unicode="&#x2020;" horiz-adv-x="217" 
d="M139 570l0.000976562 -63.001c0 -10 0.166992 -20.833 0.5 -32.5s1.5 -18.834 3.5 -21.501c3.33301 -4 13 -6 29 -6h15c1.33301 0 3.66602 0.333008 6.99902 1v-75c-11.333 0 -22.666 -0.333008 -33.999 -1s-17.833 -4 -19.5 -10s-2.5 -23.333 -2.5 -52
c0 -17.333 0.166992 -33.666 0.5 -48.999s0.833008 -29.333 1.5 -42c0 -54.667 -8.66699 -95 -26 -121c-2.66699 -4.66699 -7.33398 -9.66699 -14.001 -15c-8 9.33301 -13.667 18.333 -17 27c-12 28.667 -18 65 -18 109c0.666992 11.333 1.16699 24.5 1.5 39.5
s0.5 30.833 0.5 47.5c0 14 -0.333008 26.333 -1 37s-2 17.334 -4 20.001c-4 4.66699 -9 7.5 -15 8.5s-15.667 1.5 -29 1.5v75h13c17.333 0 27 1.66699 29 5c1.33301 1.33301 2.33301 6 3 14s1 15 1 21v21v61h75z" />
    <glyph glyph-name="daggerdbl" unicode="&#x2021;" horiz-adv-x="226" 
d="M71 218l-0.00390625 33.0029v17v16v14v12c0 12 -0.166992 23.5 -0.5 34.5s-1.16602 17.167 -2.49902 18.5c-4 4.66699 -9 7.5 -15 8.5s-15.667 1.5 -29 1.5v74c8.66699 0 18 0.166992 28 0.5s16 2.16602 18 5.49902c1.33301 1.33301 2.33301 6 3 14s1 15 1 21v21v61h75
v-63c0 -10 0.166992 -20.833 0.5 -32.5s1.5 -18.834 3.5 -21.501c3.33301 -4 12.333 -6 27 -6h14c1.33301 0 3.33301 0.333008 6 1v-75h-5c-4.66699 0 -9 0.333008 -13 1c-10.667 0 -19.167 -1 -25.5 -3s-9.5 -6 -9.5 -12v-16.5v-27.5c0 -22.667 0.333008 -44.834 1 -66.501
s2.5 -34.334 5.5 -38.001s7.83301 -6 14.5 -7s17 -1.5 31 -1.5v-75c-9.33301 0 -19.166 -0.166992 -29.499 -0.5s-16.5 -1.83301 -18.5 -4.5c-1.33301 -1.33301 -2.33301 -6 -3 -14s-1 -15 -1 -21v-21v-61h-75v63v23c0 4.66699 -0.166992 10.334 -0.5 17.001
s-1.5 11.334 -3.5 14.001c-3.33301 4 -11.666 6 -24.999 6h-14c-1.33301 0 -3.33301 -0.333008 -6 -1v75c10.667 -0.666992 21.334 -0.333984 32.001 0.999023s16 6.33301 16 15z" />
    <glyph glyph-name="bullet" unicode="&#x2022;" horiz-adv-x="177" 
d="M24 335c0 20 5.33203 37.167 15.999 51.5s26.334 21.5 47.001 21.5c17.333 0 33.333 -5.83301 48 -17.5s22 -26.5 22 -44.5s-5 -33.667 -15 -47s-23.667 -21.333 -41 -24c-19.333 -3.33301 -37 1.16699 -53 13.5s-24 27.833 -24 46.5z" />
    <glyph glyph-name="ellipsis" unicode="&#x2026;" horiz-adv-x="510" 
d="M26 48c0 17.333 4.33301 31.833 13 43.5s21.667 17.5 39 17.5c15.333 0 29 -4.83301 41 -14.5s18 -22.167 18 -37.5s-4.16699 -28.5 -12.5 -39.5s-19.833 -17.5 -34.5 -19.5c-16.667 -2.66699 -31.5 1 -44.5 11s-19.5 23 -19.5 39zM201 48
c0 17.333 4.33301 31.833 13 43.5s21.667 17.5 39 17.5c15.333 0 29 -4.83301 41 -14.5s18 -22.167 18 -37.5s-4.16699 -28.5 -12.5 -39.5s-19.833 -17.5 -34.5 -19.5c-16.667 -2.66699 -31.5 1 -44.5 11s-19.5 23 -19.5 39zM376 48c0 17.333 4.33301 31.833 13 43.5
s21.667 17.5 39 17.5c15.333 0 29 -4.83301 41 -14.5s18 -22.167 18 -37.5s-4.16699 -28.5 -12.5 -39.5s-19.833 -17.5 -34.5 -19.5c-16.667 -2.66699 -31.5 1 -44.5 11s-19.5 23 -19.5 39z" />
    <glyph glyph-name="guilsinglleft" unicode="&#x2039;" horiz-adv-x="260" 
d="M106 318l109 -108l-42 -41l-149 150l149 149l41 -42z" />
    <glyph glyph-name="guilsinglright" unicode="&#x203a;" horiz-adv-x="260" 
d="M224 317l-149 -150l-42 41l109 108l-108 108l41 42z" />
    <glyph glyph-name="product" unicode="&#x220f;" horiz-adv-x="492" 
d="M126 247l-0.000976562 -248.001h-79v480c0 68 20.167 123.5 60.5 166.5s91.5 64.5 153.5 64.5c58 0 107 -21.333 147 -64s60 -93 60 -151c0 -63.333 -20.667 -113.666 -62 -150.999c-30 -27.333 -68.667 -46.333 -116 -57c-5.33301 -0.666992 -8 -3.33398 -8 -8.00098
c0 -4 2.16699 -9.83301 6.5 -17.5s10.833 -17.5 19.5 -29.5l169 -232l-96 -1l-207 273c-10 14.667 -16.667 23.334 -20 26.001c-6 4.66699 -12.333 6.33398 -19 5.00098c-3.33301 -0.666992 -5.66602 -4.83398 -6.99902 -12.501s-2 -16.167 -2 -25.5v-18zM264.999 627.999
c-36 0 -66.668 -13.332 -92.001 -39.999s-38 -58 -38 -94c0 -36.667 12.333 -67.334 37 -92.001s56.334 -37 95.001 -37c34.667 0 63.167 13.5 85.5 40.5s33.5 58.833 33.5 95.5c0 34 -11.667 63.667 -35 89s-52 38 -86 38zM162.998 778v47l96 -31l92 31v-47l-92 -32z" />
    <glyph glyph-name="fraction" unicode="&#x2215;" horiz-adv-x="596" 
d="M24 -1l480 716h73l-480 -716h-73z" />
    <glyph glyph-name="radical" unicode="&#x221a;" horiz-adv-x="374" 
d="M343 413l-0.00195312 -79c-29.333 24 -62 36 -98 36c-39.333 0 -73.666 -13.333 -102.999 -40c-33.333 -30 -50 -69 -50 -117c0 -46 16.333 -82 49 -108c36.667 -28.667 71.667 -43 105 -43c16.667 0 32.834 3.16699 48.501 9.5s31.167 15.833 46.5 28.5v-84
c-34 -16 -67.667 -24 -101 -24c-54.667 0 -104.667 21 -150 63c-22 21.333 -38.833 46 -50.5 74s-17.5 57.667 -17.5 89c0 36 7.33301 69.5 22 100.5s36 56.833 64 77.5c42 30 85.333 45 130 45c35.333 0 70.333 -9.33301 105 -28zM147.998 522v47l96 -31l92 31v-47l-92 -32
z" />
    <glyph glyph-name="lozenge" unicode="&#x25ca;" horiz-adv-x="540" 
d="M502 101v-87c-39.333 -14.667 -79 -22 -119 -22c-99.333 0 -184 35.333 -254 106s-105 155.667 -105 255c0 97.333 35.167 180.5 105.5 249.5s154.5 103.5 252.5 103.5c42.667 0 83 -6 121 -18v-89c-38 18 -78.333 27 -121 27c-75.333 0 -139.666 -27 -192.999 -81
s-80 -119 -80 -195c0 -75.333 26.667 -140.333 80 -195s117.666 -82 192.999 -82c22.667 0 44 2.5 64 7.5s38.667 11.833 56 20.5zM283 778v47l96 -31l92 31v-47l-92 -32z" />
    <glyph glyph-name="fi" unicode="&#xf001;" horiz-adv-x="410" 
d="M283 557c0 14 5 26.001 15 36.001s22.333 15 37 15c14 0 26 -5 36 -15s15 -22 15 -36s-5 -26 -15 -36s-22 -15 -36 -15c-14.667 0 -27 4.66699 -37 14s-15 21.666 -15 36.999zM299 380.001l-53.001 -1c-26 0 -44.333 -0.666992 -55 -2s-18 -6.33301 -22 -15
s-6 -16.334 -6 -23.001c0.666992 -6.66699 1 -12.667 1 -18v-323h-80v320v21c0 10 -2.16699 18 -6.5 24s-10.166 10.167 -17.499 12.5s-16.333 3.5 -27 3.5h-24v70h7c6 -0.666992 12 -1 18 -1c16.667 0 28.5 0.666992 35.5 2s10.833 4.33301 11.5 9
c4 38.667 9.66699 69.334 17 92.001s20.333 46 39 70c9.33301 12.667 28.333 29 57 49s49.667 31 63 33l32 6v-74l-15 -5c-10 -2.66699 -23 -10 -39 -22c-20.667 -15.333 -35.667 -31.333 -45 -48c-6.66699 -12 -12.167 -25.167 -16.5 -39.5s-6.5 -27.5 -6.5 -39.5
c0 -9.33301 1.66699 -16.5 5 -21.5s8.5 -8.5 15.5 -10.5s14.167 -3 21.5 -3h14.5c5 0 10.167 0.333008 15.5 1l134 1v-449h-74v381z" />
    <glyph glyph-name="fl" unicode="&#xf002;" horiz-adv-x="432" 
d="M313 633l-39.001 -3c-10 -2.66699 -23 -10 -39 -22c-20.667 -15.333 -35.667 -31.333 -45 -48c-6.66699 -12 -12.167 -25.167 -16.5 -39.5s-6.5 -27.5 -6.5 -39.5c0 -9.33301 1.5 -16.333 4.5 -21s7.5 -8.16699 13.5 -10.5s15.667 -3.5 29 -3.5h25h29v-67h-22
c-26 0 -44.333 -0.666992 -55 -2s-18 -6.33301 -22 -15s-6 -16.334 -6 -23.001c0.666992 -6.66699 1 -12.667 1 -18v-323h-80v320v21c0 10 -2.16699 18 -6.5 24s-10.166 10.167 -17.499 12.5s-16.333 3.5 -27 3.5h-24v70h7c6 -0.666992 12 -1 18 -1
c16.667 0 28.5 0.666992 35.5 2s10.833 4.33301 11.5 9c4 38.667 9.66699 69.334 17 92.001s20.333 46 39 70c9.33301 12.667 28.333 29 57 49s49.667 31 63 33l56 6h74v-711h-74v635z" />
    <glyph glyph-name="nonmarkingreturn" horiz-adv-x="224" 
 />
    </font>
</defs>
</svg>
